<svg width="300" height="275" viewBox="0 0 300 275" fill="none" xmlns="http://www.w3.org/2000/svg">
<g opacity="0.4">
<path d="M213.852 2.00649L268.843 0L266.849 55.0682L257.682 54.7472L259.085 16.2727L81.8198 193.787L75.3379 187.296L252.613 9.77163L214.182 11.1762L213.852 2.00649Z" fill="url(#paint0_linear_104_616)" style="mix-blend-mode:screen"/>
<path d="M176.363 123.189L176.093 115.564L221.806 113.889L220.153 159.677L212.529 159.406L213.701 127.422L66.3313 275L60.9414 269.603L208.322 122.015L176.363 123.189Z" fill="url(#paint1_linear_104_616)" style="mix-blend-mode:screen"/>
<path d="M238.978 142.552L238.848 138.85L261.038 138.037L260.237 160.269L256.54 160.139L257.101 144.608L185.56 216.25L182.945 213.632L254.486 141.99L238.978 142.552Z" fill="url(#paint2_linear_104_616)" style="mix-blend-mode:screen"/>
<path d="M143.964 140.153L143.834 136.451L166.025 135.639L165.223 157.861L161.527 157.73L162.088 142.21L90.5464 213.842L87.9316 211.223L159.483 139.581L143.964 140.153Z" fill="url(#paint3_linear_104_616)" style="mix-blend-mode:screen"/>
<path d="M104.14 21.9414L104.01 18.2394L126.201 17.4268L125.389 39.6487L121.692 39.5183L122.263 23.998L50.7222 95.6299L48.1074 93.0114L119.649 21.3695L104.14 21.9414Z" fill="url(#paint4_linear_104_616)" style="mix-blend-mode:screen"/>
<path d="M258.194 72.7854L258.124 70.9094L269.384 70.498L268.974 81.7745L267.1 81.7143L267.391 73.8288L231.084 110.186L229.762 108.852L266.058 72.4945L258.194 72.7854Z" fill="url(#paint5_linear_104_616)" style="mix-blend-mode:screen"/>
<path d="M128.526 106.144L128.466 104.268L139.726 103.856L139.316 115.133L137.442 115.073L137.723 107.187L101.426 143.545L100.094 142.211L136.4 105.863L128.526 106.144Z" fill="url(#paint6_linear_104_616)" style="mix-blend-mode:screen"/>
<path d="M288.799 134.977L288.739 133.101L300 132.689L299.589 143.966L297.716 143.906L297.996 136.02L261.7 172.378L260.367 171.044L296.674 134.696L288.799 134.977Z" fill="url(#paint7_linear_104_616)" style="mix-blend-mode:screen"/>
<path d="M179.87 3.79229L179.81 1.91621L191.07 1.50488L190.659 12.7814L188.786 12.7112L189.066 4.83566L152.77 41.1833L151.438 39.859L187.744 3.50135L179.87 3.79229Z" fill="url(#paint8_linear_104_616)" style="mix-blend-mode:screen"/>
<path d="M151.588 94.0544L152.75 62.0709L5.38988 209.649L0 204.251L147.38 56.6634L115.422 57.8372L115.151 50.2025L160.865 48.5371L159.212 94.3253L151.588 94.0544Z" fill="url(#paint9_linear_104_616)" style="mix-blend-mode:screen"/>
</g>
<defs>
<linearGradient id="paint0_linear_104_616" x1="247.907" y1="-12.1025" x2="117.069" y2="214.172" gradientUnits="userSpaceOnUse">
<stop offset="0.11" stop-color="#CAFF33"/>
<stop offset="1" stop-color="#191919" stop-opacity="0"/>
</linearGradient>
<linearGradient id="paint1_linear_104_616" x1="204.402" y1="103.827" x2="95.6214" y2="291.941" gradientUnits="userSpaceOnUse">
<stop offset="0.11" stop-color="#CAFF33"/>
<stop offset="1" stop-color="#191919" stop-opacity="0"/>
</linearGradient>
<linearGradient id="paint2_linear_104_616" x1="252.59" y1="133.152" x2="199.781" y2="224.474" gradientUnits="userSpaceOnUse">
<stop offset="0.11" stop-color="#CAFF33"/>
<stop offset="1" stop-color="#191919" stop-opacity="0"/>
</linearGradient>
<linearGradient id="paint3_linear_104_616" x1="157.576" y1="130.755" x2="104.777" y2="222.071" gradientUnits="userSpaceOnUse">
<stop offset="0.11" stop-color="#CAFF33"/>
<stop offset="1" stop-color="#191919" stop-opacity="0"/>
</linearGradient>
<linearGradient id="paint4_linear_104_616" x1="117.752" y1="12.5428" x2="64.953" y2="103.859" gradientUnits="userSpaceOnUse">
<stop offset="0.11" stop-color="#CAFF33"/>
<stop offset="1" stop-color="#191919" stop-opacity="0"/>
</linearGradient>
<linearGradient id="paint5_linear_104_616" x1="265.098" y1="68.0194" x2="238.299" y2="114.357" gradientUnits="userSpaceOnUse">
<stop offset="0.11" stop-color="#CAFF33"/>
<stop offset="1" stop-color="#191919" stop-opacity="0"/>
</linearGradient>
<linearGradient id="paint6_linear_104_616" x1="135.439" y1="101.378" x2="108.643" y2="147.721" gradientUnits="userSpaceOnUse">
<stop offset="0.11" stop-color="#CAFF33"/>
<stop offset="1" stop-color="#191919" stop-opacity="0"/>
</linearGradient>
<linearGradient id="paint7_linear_104_616" x1="295.712" y1="130.211" x2="268.916" y2="176.554" gradientUnits="userSpaceOnUse">
<stop offset="0.11" stop-color="#CAFF33"/>
<stop offset="1" stop-color="#191919" stop-opacity="0"/>
</linearGradient>
<linearGradient id="paint8_linear_104_616" x1="186.782" y1="-0.973138" x2="159.997" y2="45.3643" gradientUnits="userSpaceOnUse">
<stop offset="0.11" stop-color="#CAFF33"/>
<stop offset="1" stop-color="#191919" stop-opacity="0"/>
</linearGradient>
<linearGradient id="paint9_linear_104_616" x1="143.461" y1="38.4753" x2="34.68" y2="226.59" gradientUnits="userSpaceOnUse">
<stop offset="0.11" stop-color="#CAFF33"/>
<stop offset="1" stop-color="#191919" stop-opacity="0"/>
</linearGradient>
</defs>
</svg>
