<svg width="31" height="32" viewBox="0 0 31 32" fill="none" xmlns="http://www.w3.org/2000/svg">
<rect x="0.242188" y="0.897461" width="30.3466" height="30.2555" rx="15.1278" fill="#CAFF33"/>
<path fill-rule="evenodd" clip-rule="evenodd" d="M15.4152 11.3896C15.7012 11.3896 15.9331 11.6203 15.9331 11.9047V15.5102H19.5585C19.8446 15.5102 20.0765 15.7408 20.0765 16.0253C20.0765 16.3098 19.8446 16.5404 19.5585 16.5404H15.9331V20.1459C15.9331 20.4304 15.7012 20.661 15.4152 20.661C15.1291 20.661 14.8973 20.4304 14.8973 20.1459V16.5404H11.2718C10.9858 16.5404 10.7539 16.3098 10.7539 16.0253C10.7539 15.7408 10.9858 15.5102 11.2718 15.5102H14.8973V11.9047C14.8973 11.6203 15.1291 11.3896 15.4152 11.3896Z" fill="#1A1A1A"/>
</svg>
