<svg width="57" height="56" viewBox="0 0 57 56" fill="none" xmlns="http://www.w3.org/2000/svg">
<rect x="0.666016" width="56" height="56" rx="28" fill="url(#paint0_linear_104_2418)" fill-opacity="0.1"/>
<rect x="1.16602" y="0.5" width="55" height="55" rx="27.5" stroke="url(#paint1_linear_104_2418)" stroke-opacity="0.2"/>
<path d="M26.9196 31.4435C26.1334 31.4435 25.6729 31.001 25.6729 30.2068V29.2877C22.371 29.0608 19.0803 28.3801 15.666 27.0752V25.2032C19.8664 27.0639 24.0781 27.722 28.6604 27.722C33.254 27.722 37.4656 27.0639 41.666 25.2032V27.0752C38.2518 28.3801 34.961 29.0608 31.6591 29.2877V30.2068C31.6591 31.001 31.1986 31.4435 30.4124 31.4435H26.9196ZM19.1364 38.9886H38.1956C40.5205 38.9886 41.666 37.854 41.666 35.5281V24.4884C41.666 22.1624 40.5205 21.0278 38.1956 21.0278H19.1364C16.8228 21.0278 15.666 22.1624 15.666 24.4884V35.5281C15.666 37.854 16.8228 38.9886 19.1364 38.9886ZM22.9662 22.0149H24.7071V20.0067C24.7071 19.1444 25.2125 18.6565 26.0885 18.6565H31.2436C32.1196 18.6565 32.6138 19.1444 32.6138 20.0067V21.9923H34.3546V20.1315C34.3546 17.9985 33.2427 17 31.2099 17H26.1109C24.1904 17 22.9662 17.9985 22.9662 20.1315V22.0149Z" fill="#CAFF33"/>
<defs>
<linearGradient id="paint0_linear_104_2418" x1="28.666" y1="-37.0811" x2="28.666" y2="144.541" gradientUnits="userSpaceOnUse">
<stop stop-color="#CAFF33"/>
<stop offset="0.467671" stop-color="#CAFF33" stop-opacity="0"/>
</linearGradient>
<linearGradient id="paint1_linear_104_2418" x1="28.666" y1="-97.2432" x2="28.666" y2="106.703" gradientUnits="userSpaceOnUse">
<stop stop-color="#CAFF33"/>
<stop offset="0.716291" stop-color="#CAFF33" stop-opacity="0"/>
</linearGradient>
</defs>
</svg>
