<svg width="142" height="42" viewBox="0 0 142 42" fill="none" xmlns="http://www.w3.org/2000/svg">
<rect x="1.10214" y="0.451751" width="140.102" height="40.5551" rx="20.2775" fill="#1A1A1A"/>
<rect x="1.10214" y="0.451751" width="140.102" height="40.5551" rx="20.2775" stroke="#262626" stroke-width="0.688659"/>
<path fill-rule="evenodd" clip-rule="evenodd" d="M21.4557 34.4647C29.0834 34.4647 35.2669 28.3152 35.2669 20.7294C35.2669 13.1436 29.0834 6.99414 21.4557 6.99414C13.828 6.99414 7.64453 13.1436 7.64453 20.7294C7.64453 28.3152 13.828 34.4647 21.4557 34.4647Z" fill="#262626"/>
<path fill-rule="evenodd" clip-rule="evenodd" d="M20.2447 14.3906C21.0032 14.3906 21.7589 14.3906 22.5175 14.3906C22.4728 14.9009 22.4254 15.414 22.3836 15.9243C23.2676 15.9881 24.1293 16.2709 24.9045 16.6897C24.5699 17.5273 24.2325 18.3648 23.895 19.2023C23.2425 18.6505 22.3836 18.3454 21.5275 18.3565C21.3128 18.362 21.0897 18.4036 20.9112 18.5257C20.7941 18.6061 20.7076 18.7309 20.6825 18.8695C20.663 18.9805 20.6686 19.1053 20.7299 19.2051C20.7996 19.316 20.9223 19.3826 21.045 19.4242C21.296 19.513 21.5665 19.5185 21.8287 19.5462C22.4449 19.6211 23.064 19.7265 23.6469 19.9456C24.0986 20.1175 24.5309 20.3755 24.8404 20.7526C25.1332 21.0993 25.3033 21.5375 25.3675 21.9868C25.4427 22.5054 25.4204 23.0434 25.2587 23.5481C25.1332 23.953 24.9185 24.3302 24.6396 24.6491C24.0624 25.3147 23.2146 25.7141 22.3446 25.8167C22.3724 26.3631 22.4059 26.9066 22.4366 27.453C21.7171 27.453 21.0004 27.453 20.2837 27.453C20.3116 26.9122 20.3479 26.3714 20.373 25.8306C19.7957 25.8112 19.2241 25.6836 18.6859 25.4811C18.1644 25.2842 17.668 25.0235 17.2051 24.7185C17.5453 23.8477 17.8855 22.9768 18.2285 22.1032C18.6161 22.4277 19.0289 22.73 19.4806 22.9602C19.9658 23.207 20.504 23.3651 21.0506 23.3706C21.31 23.3734 21.5777 23.3596 21.8231 23.2708C21.9737 23.2153 22.1215 23.1183 22.1884 22.9657C22.2581 22.8049 22.2525 22.6024 22.1466 22.4582C22.0713 22.3612 21.9653 22.2946 21.8538 22.2475C21.7032 22.1864 21.547 22.1532 21.3881 22.1282C20.8024 22.0339 20.214 21.9563 19.6479 21.7732C19.1934 21.6262 18.75 21.421 18.3875 21.1048C18.1588 20.9079 17.9692 20.6667 17.8353 20.3949C17.6345 19.99 17.5592 19.5324 17.5648 19.0831C17.5648 18.5811 17.668 18.0708 17.919 17.6299C18.1365 17.2361 18.4683 16.9143 18.842 16.6675C19.2938 16.3708 19.7985 16.1683 20.3116 16.0047C20.2893 15.4667 20.267 14.9286 20.2447 14.3906Z" fill="#CAFF33"/>
<path d="M68.3224 20.7302C68.3224 28.2761 62.1716 34.3932 54.5841 34.3932C46.9966 34.3932 40.8457 28.2761 40.8457 20.7302C40.8457 13.1844 46.9966 7.06738 54.5841 7.06738C62.1715 7.06738 68.3224 13.1844 68.3224 20.7302Z" fill="#262626"/>
<path d="M58.4431 26.4381L58.1261 25.0065C58.1081 24.9223 58.0628 24.8592 57.9902 24.8174C57.9117 24.7753 57.8333 24.7695 57.7549 24.7995L57.7095 24.8174L57.6008 24.8444C57.5524 24.8562 57.4966 24.8698 57.4332 24.8848C57.3698 24.8998 57.296 24.9147 57.2114 24.9298C57.1272 24.9448 57.0377 24.9584 56.9444 24.9704C56.8509 24.9822 56.7499 24.9929 56.6412 25.0019C56.5324 25.0108 56.4239 25.0153 56.3151 25.0153C55.5485 25.0153 54.8588 24.8098 54.2462 24.3986C53.6335 23.9873 53.1823 23.4305 52.8926 22.7282H56.3964C56.463 22.7282 56.5233 22.7058 56.5775 22.6607C56.632 22.6157 56.6652 22.5603 56.677 22.494L56.8943 21.4855C56.9125 21.3957 56.8943 21.3145 56.8401 21.2424C56.7798 21.1703 56.7042 21.1343 56.6137 21.1343H52.458C52.4399 20.7261 52.4399 20.4109 52.458 20.1888H56.8765C57.0396 20.1888 57.1361 20.1108 57.1663 19.9547L57.3836 18.9282C57.4015 18.8442 57.3807 18.7662 57.3202 18.6941C57.266 18.6221 57.1906 18.5859 57.094 18.5859H52.8564C53.1583 17.9136 53.6109 17.3853 54.2146 17.0011C54.8183 16.6168 55.5004 16.4248 56.2609 16.4248C56.2851 16.4128 56.3741 16.4158 56.5279 16.4338C56.6818 16.4517 56.7695 16.4593 56.7905 16.4562C56.8114 16.4533 56.8902 16.4623 57.0258 16.4832C57.1617 16.5042 57.2297 16.5148 57.2297 16.5148L57.3881 16.5462C57.4335 16.5553 57.4682 16.5627 57.4923 16.5688L57.5285 16.5777C57.6069 16.6019 57.6792 16.5943 57.7458 16.5553C57.8123 16.5162 57.8546 16.4577 57.8727 16.3797L58.2621 14.948C58.2801 14.8699 58.271 14.7979 58.235 14.7319C58.1806 14.6597 58.1201 14.6147 58.0537 14.5968C57.4985 14.4587 56.9127 14.3896 56.2972 14.3896C54.9449 14.3896 53.7363 14.774 52.6708 15.5422C51.6054 16.3106 50.8705 17.3252 50.466 18.5858H49.5788C49.4942 18.5858 49.4249 18.6128 49.3705 18.6668C49.3163 18.7208 49.2891 18.7898 49.2891 18.8739V19.9004C49.2891 19.9845 49.3162 20.0535 49.3705 20.1074C49.4249 20.1615 49.4943 20.1884 49.5788 20.1884H50.1854C50.1672 20.4767 50.1643 20.7916 50.1763 21.134H49.5788C49.5003 21.134 49.4324 21.1625 49.3751 21.2195C49.3178 21.2765 49.2891 21.3441 49.2891 21.422V22.4396C49.2891 22.5177 49.3178 22.5851 49.3751 22.6423C49.4324 22.6993 49.5003 22.7276 49.5788 22.7276H50.439C50.8192 24.0542 51.5376 25.1094 52.5939 25.8927C53.6504 26.6763 54.8848 27.0679 56.2972 27.0679C56.412 27.0679 56.5281 27.0651 56.6458 27.0588C56.7638 27.0528 56.8738 27.0437 56.9764 27.0319C57.079 27.02 57.1801 27.0066 57.2798 26.9915C57.3793 26.9764 57.4699 26.9616 57.5513 26.9464C57.6328 26.9315 57.7098 26.9165 57.7821 26.9016C57.8546 26.8864 57.9195 26.8701 57.9769 26.852C58.0343 26.8342 58.0823 26.8205 58.1217 26.8117C58.161 26.8027 58.1927 26.792 58.2167 26.7802L58.2621 26.7711C58.3285 26.7471 58.3798 26.7036 58.416 26.6404C58.4522 26.5778 58.4611 26.5101 58.4431 26.4381Z" fill="#CAFF33"/>
<path d="M101.116 24.0523C99.2718 31.4106 91.7775 35.8883 84.3778 34.0538C76.9815 32.2193 72.4786 24.7661 74.3237 17.4083C76.1675 10.0492 83.6613 5.57065 91.0589 7.40517C98.4583 9.23969 102.961 16.6937 101.116 24.0523H101.116Z" fill="#262626"/>
<path fill-rule="evenodd" clip-rule="evenodd" d="M91.8779 19.1343C92.0641 17.8944 91.1149 17.2279 89.8169 16.7833L90.2379 15.1037L89.2097 14.8489L88.7998 16.4842C88.5298 16.4173 88.2522 16.3541 87.9764 16.2915L88.3893 14.6454L87.3619 14.3906L86.9405 16.0696C86.7168 16.0189 86.4973 15.9688 86.2841 15.9161L86.2853 15.9109L84.8676 15.5588L84.5941 16.6508C84.5941 16.6508 85.3568 16.8246 85.3407 16.8354C85.7571 16.9388 85.8326 17.2128 85.8197 17.43L85.3401 19.3433C85.3688 19.3506 85.406 19.3611 85.447 19.3774L85.3387 19.3506L84.6661 22.0309C84.6152 22.1567 84.4861 22.3454 84.195 22.2738C84.2053 22.2886 83.4478 22.0883 83.4478 22.0883L82.9375 23.2589L84.2756 23.5905C84.4266 23.6282 84.5759 23.6669 84.7234 23.7052C84.819 23.73 84.9139 23.7546 85.0081 23.7786L84.5827 25.4777L85.6095 25.7324L86.0311 24.0517C86.3113 24.1275 86.5836 24.1973 86.8501 24.2631L86.4302 25.936L87.4582 26.1908L87.8836 24.4952C89.6366 24.8251 90.955 24.6921 91.5092 23.1156C91.9563 21.846 91.4873 21.1137 90.565 20.6359C91.2367 20.4813 91.7426 20.0419 91.8776 19.1343H91.8779ZM89.5271 22.4094C89.2352 23.5746 87.4009 23.0924 86.5624 22.872C86.4873 22.8523 86.4202 22.8347 86.3629 22.8205L86.9274 20.57C86.9974 20.5873 87.083 20.6064 87.1799 20.6281L87.1799 20.6281C88.0474 20.8217 89.8252 21.2184 89.5274 22.4094H89.5271ZM87.3544 19.584C88.0541 19.7696 89.5792 20.1742 89.8449 19.1157C90.1165 18.0329 88.6335 17.7065 87.9092 17.5471C87.8278 17.5292 87.7559 17.5133 87.6973 17.4988L87.1855 19.54C87.2339 19.552 87.2907 19.5671 87.3544 19.584Z" fill="#CAFF33"/>
<path d="M134.586 20.7292C134.586 28.2751 128.435 34.3922 120.848 34.3922C113.26 34.3922 107.109 28.2751 107.109 20.7292C107.109 13.1835 113.26 7.06641 120.848 7.06641C128.435 7.06641 134.586 13.1835 134.586 20.7292Z" fill="#262626"/>
<g opacity="0.8">
<path d="M120.802 14.3906L120.717 14.6775V23.0008L120.802 23.0851L124.687 20.8013L120.802 14.3906Z" fill="#CAFF33"/>
<path d="M120.803 14.3906L116.918 20.8013L120.803 23.0851V19.0452V14.3906Z" fill="#CAFF33"/>
<path d="M120.804 24.3422L120.756 24.4002V27.3651L120.804 27.504L124.691 22.0596L120.804 24.3422Z" fill="#CAFF33"/>
<path d="M120.803 27.5041V24.3422L116.918 22.0596L120.803 27.5041Z" fill="#CAFF33"/>
<path d="M120.803 23.0848L124.688 20.801L120.803 19.0449V23.0848Z" fill="#CAFF33"/>
<path d="M116.918 20.801L120.803 23.0848V19.0449L116.918 20.801Z" fill="#CAFF33"/>
</g>
</svg>
