<svg width="356" height="148" viewBox="0 0 356 148" fill="none" xmlns="http://www.w3.org/2000/svg">
<g opacity="0.2">
<rect x="28.2467" y="86.1725" width="299.318" height="61.3484" rx="7.91958" fill="#1C1C1C"/>
<rect x="28.2467" y="86.1725" width="299.318" height="61.3484" rx="7.91958" stroke="#262626" stroke-width="0.688659"/>
<rect x="44.4297" y="101.719" width="30.3466" height="30.2555" rx="15.1278" fill="#CAFF33"/>
<path fill-rule="evenodd" clip-rule="evenodd" d="M62.2541 110.451C62.0205 110.702 62.0351 111.093 62.2866 111.325L64.0272 112.932L56.9088 112.932C56.5656 112.932 56.2873 113.209 56.2873 113.55C56.2873 113.892 56.5656 114.168 56.9088 114.168L64.0272 114.168L62.2866 115.776C62.0351 116.008 62.0205 116.399 62.2541 116.649C62.4877 116.899 62.8809 116.914 63.1324 116.682L66.0328 114.003C66.1594 113.886 66.2314 113.722 66.2314 113.55C66.2314 113.379 66.1594 113.214 66.0328 113.097L63.1324 110.419C62.8809 110.187 62.4877 110.201 62.2541 110.451ZM56.9499 117.044C56.7164 116.794 56.3231 116.78 56.0716 117.012L53.1713 119.69C53.0446 119.807 52.9727 119.971 52.9727 120.143C52.9727 120.315 53.0446 120.479 53.1713 120.596L56.0716 123.275C56.3231 123.507 56.7164 123.492 56.9499 123.242C57.1835 122.992 57.1689 122.601 56.9174 122.369L55.1768 120.761H62.2952C62.6385 120.761 62.9167 120.485 62.9167 120.143C62.9167 119.802 62.6385 119.525 62.2952 119.525H55.1768L56.9174 117.918C57.1689 117.686 57.1835 117.295 56.9499 117.044Z" fill="#1C1C1C"/>
<path d="M84.5132 110.847V103.112H82.034V102.17H88.0584V103.112H85.48V110.847H84.5132ZM88.5834 110.847V104.376H89.5131L89.5378 106.099L89.4387 105.864C89.5296 105.574 89.6742 105.306 89.8725 105.058C90.0791 104.81 90.3229 104.612 90.6039 104.463C90.8849 104.314 91.1948 104.24 91.5336 104.24C91.6741 104.24 91.8063 104.252 91.9302 104.277C92.0542 104.293 92.1575 104.318 92.2401 104.351L91.9798 105.392C91.8724 105.343 91.7608 105.31 91.6451 105.293C91.5377 105.269 91.4344 105.256 91.3352 105.256C91.0543 105.256 90.8022 105.306 90.5791 105.405C90.356 105.504 90.1659 105.645 90.0089 105.826C89.8519 106 89.732 106.202 89.6494 106.434C89.5668 106.665 89.5254 106.913 89.5254 107.178V110.847H88.5834ZM95.4579 110.971C94.896 110.971 94.3878 110.826 93.9332 110.537C93.4787 110.239 93.1192 109.838 92.8548 109.334C92.5904 108.822 92.4581 108.244 92.4581 107.599C92.4581 106.946 92.5945 106.368 92.8672 105.864C93.1399 105.359 93.5035 104.963 93.958 104.674C94.4208 104.384 94.9373 104.24 95.5075 104.24C95.8463 104.24 96.1604 104.289 96.4496 104.388C96.7388 104.488 96.995 104.628 97.2181 104.81C97.4495 104.983 97.6396 105.19 97.7884 105.43C97.9454 105.661 98.0528 105.913 98.1106 106.186L97.8379 106.049L97.8751 104.376H98.8048V110.847H97.8627V109.26L98.1106 109.099C98.0528 109.347 97.9412 109.586 97.776 109.818C97.6107 110.041 97.4082 110.239 97.1686 110.413C96.9372 110.586 96.6727 110.723 96.3752 110.822C96.086 110.921 95.7802 110.971 95.4579 110.971ZM95.6687 110.078C96.0984 110.078 96.4827 109.975 96.8215 109.768C97.1603 109.553 97.4247 109.26 97.6148 108.888C97.8131 108.508 97.9123 108.078 97.9123 107.599C97.9123 107.12 97.8131 106.694 97.6148 106.322C97.4247 105.95 97.1603 105.657 96.8215 105.442C96.4827 105.227 96.0984 105.12 95.6687 105.12C95.2307 105.12 94.8423 105.227 94.5035 105.442C94.1729 105.657 93.9085 105.95 93.7101 106.322C93.52 106.694 93.425 107.12 93.425 107.599C93.425 108.07 93.52 108.496 93.7101 108.876C93.9002 109.248 94.1646 109.541 94.5035 109.756C94.8423 109.971 95.2307 110.078 95.6687 110.078ZM100.616 110.847V104.376H101.533L101.571 105.727L101.422 105.789C101.504 105.508 101.666 105.252 101.905 105.021C102.145 104.789 102.43 104.603 102.761 104.463C103.099 104.314 103.446 104.24 103.802 104.24C104.281 104.24 104.682 104.335 105.004 104.525C105.326 104.715 105.57 105.008 105.736 105.405C105.901 105.802 105.983 106.306 105.983 106.917V110.847H105.041V106.967C105.041 106.537 104.984 106.186 104.868 105.913C104.76 105.632 104.591 105.426 104.36 105.293C104.128 105.161 103.843 105.099 103.504 105.107C103.223 105.107 102.963 105.157 102.723 105.256C102.484 105.347 102.277 105.475 102.104 105.64C101.93 105.806 101.794 105.996 101.695 106.211C101.595 106.425 101.546 106.657 101.546 106.905V110.847H101.087C101.029 110.847 100.963 110.847 100.889 110.847C100.814 110.847 100.723 110.847 100.616 110.847ZM109.878 110.971C109.324 110.971 108.828 110.867 108.39 110.661C107.952 110.454 107.605 110.181 107.349 109.843L108.006 109.272C108.246 109.562 108.527 109.781 108.849 109.929C109.18 110.078 109.547 110.153 109.952 110.153C110.159 110.153 110.345 110.132 110.51 110.091C110.675 110.041 110.82 109.971 110.944 109.88C111.068 109.789 111.163 109.681 111.229 109.558C111.295 109.434 111.328 109.297 111.328 109.148C111.328 108.876 111.208 108.648 110.969 108.467C110.861 108.392 110.708 108.318 110.51 108.244C110.312 108.161 110.072 108.082 109.791 108.008C109.328 107.876 108.944 107.744 108.638 107.611C108.333 107.471 108.093 107.31 107.919 107.128C107.795 106.979 107.7 106.818 107.634 106.644C107.576 106.471 107.547 106.281 107.547 106.074C107.547 105.81 107.601 105.566 107.709 105.343C107.824 105.12 107.981 104.926 108.18 104.76C108.386 104.587 108.626 104.459 108.899 104.376C109.18 104.285 109.481 104.24 109.804 104.24C110.109 104.24 110.411 104.281 110.708 104.364C111.006 104.446 111.283 104.566 111.539 104.723C111.795 104.88 112.014 105.066 112.196 105.281L111.626 105.901C111.469 105.735 111.295 105.587 111.105 105.454C110.915 105.322 110.713 105.219 110.498 105.145C110.291 105.07 110.076 105.033 109.853 105.033C109.655 105.033 109.469 105.058 109.295 105.107C109.13 105.157 108.985 105.227 108.861 105.318C108.746 105.401 108.655 105.504 108.589 105.628C108.531 105.752 108.502 105.888 108.502 106.037C108.502 106.161 108.527 106.273 108.576 106.372C108.626 106.471 108.696 106.558 108.787 106.632C108.903 106.723 109.064 106.81 109.271 106.892C109.485 106.967 109.75 107.045 110.064 107.128C110.427 107.227 110.733 107.33 110.981 107.438C111.237 107.537 111.448 107.657 111.613 107.797C111.836 107.963 111.993 108.153 112.084 108.368C112.184 108.582 112.233 108.826 112.233 109.099C112.233 109.462 112.13 109.785 111.923 110.066C111.725 110.347 111.448 110.57 111.093 110.735C110.737 110.892 110.332 110.971 109.878 110.971ZM116.219 110.971C115.657 110.971 115.148 110.826 114.694 110.537C114.239 110.239 113.88 109.838 113.615 109.334C113.351 108.822 113.219 108.244 113.219 107.599C113.219 106.946 113.355 106.368 113.628 105.864C113.901 105.359 114.264 104.963 114.719 104.674C115.181 104.384 115.698 104.24 116.268 104.24C116.607 104.24 116.921 104.289 117.21 104.388C117.499 104.488 117.756 104.628 117.979 104.81C118.21 104.983 118.4 105.19 118.549 105.43C118.706 105.661 118.813 105.913 118.871 106.186L118.599 106.049L118.636 104.376H119.565V110.847H118.623V109.26L118.871 109.099C118.813 109.347 118.702 109.586 118.537 109.818C118.371 110.041 118.169 110.239 117.929 110.413C117.698 110.586 117.433 110.723 117.136 110.822C116.847 110.921 116.541 110.971 116.219 110.971ZM116.429 110.078C116.859 110.078 117.243 109.975 117.582 109.768C117.921 109.553 118.185 109.26 118.375 108.888C118.574 108.508 118.673 108.078 118.673 107.599C118.673 107.12 118.574 106.694 118.375 106.322C118.185 105.95 117.921 105.657 117.582 105.442C117.243 105.227 116.859 105.12 116.429 105.12C115.991 105.12 115.603 105.227 115.264 105.442C114.934 105.657 114.669 105.95 114.471 106.322C114.281 106.694 114.186 107.12 114.186 107.599C114.186 108.07 114.281 108.496 114.471 108.876C114.661 109.248 114.925 109.541 115.264 109.756C115.603 109.971 115.991 110.078 116.429 110.078ZM124.104 110.971C123.492 110.971 122.947 110.826 122.468 110.537C121.988 110.239 121.608 109.838 121.327 109.334C121.054 108.822 120.918 108.244 120.918 107.599C120.918 106.954 121.054 106.38 121.327 105.876C121.608 105.364 121.988 104.963 122.468 104.674C122.947 104.384 123.496 104.24 124.116 104.24C124.67 104.24 125.174 104.351 125.629 104.574C126.083 104.789 126.447 105.091 126.719 105.479L126.174 106.149C126.017 105.942 125.827 105.76 125.604 105.603C125.389 105.446 125.153 105.326 124.897 105.244C124.649 105.153 124.401 105.107 124.153 105.107C123.715 105.107 123.323 105.219 122.976 105.442C122.629 105.657 122.352 105.95 122.145 106.322C121.947 106.694 121.848 107.12 121.848 107.599C121.848 108.078 121.947 108.508 122.145 108.888C122.352 109.26 122.629 109.553 122.976 109.768C123.323 109.983 123.711 110.091 124.141 110.091C124.389 110.091 124.633 110.053 124.872 109.979C125.112 109.896 125.339 109.781 125.554 109.632C125.769 109.483 125.967 109.297 126.149 109.074L126.695 109.743C126.414 110.115 126.038 110.413 125.567 110.636C125.095 110.859 124.608 110.971 124.104 110.971ZM128.794 110.847V102.678H129.724V110.847H128.794ZM127.331 105.269V104.376H131.36V105.269H127.331ZM132.749 110.847V104.376H133.679V110.847H132.749ZM133.208 102.975C132.977 102.975 132.799 102.917 132.675 102.802C132.559 102.678 132.502 102.513 132.502 102.306C132.502 102.099 132.564 101.934 132.687 101.81C132.811 101.686 132.985 101.624 133.208 101.624C133.431 101.624 133.605 101.686 133.729 101.81C133.853 101.926 133.915 102.091 133.915 102.306C133.915 102.504 133.853 102.665 133.729 102.789C133.605 102.913 133.431 102.975 133.208 102.975ZM138.573 110.971C137.928 110.971 137.354 110.826 136.85 110.537C136.354 110.248 135.961 109.847 135.672 109.334C135.391 108.822 135.251 108.239 135.251 107.587C135.251 106.942 135.391 106.368 135.672 105.864C135.961 105.359 136.354 104.963 136.85 104.674C137.354 104.384 137.928 104.24 138.573 104.24C139.209 104.24 139.775 104.384 140.271 104.674C140.775 104.963 141.168 105.359 141.449 105.864C141.738 106.368 141.883 106.942 141.883 107.587C141.883 108.239 141.738 108.822 141.449 109.334C141.168 109.847 140.775 110.248 140.271 110.537C139.775 110.826 139.209 110.971 138.573 110.971ZM138.573 110.091C139.027 110.091 139.432 109.983 139.788 109.768C140.143 109.545 140.42 109.248 140.618 108.876C140.817 108.496 140.916 108.066 140.916 107.587C140.916 107.107 140.817 106.682 140.618 106.31C140.42 105.938 140.143 105.649 139.788 105.442C139.432 105.227 139.027 105.12 138.573 105.12C138.118 105.12 137.709 105.227 137.346 105.442C136.99 105.649 136.709 105.942 136.503 106.322C136.304 106.694 136.209 107.116 136.218 107.587C136.209 108.066 136.304 108.496 136.503 108.876C136.709 109.248 136.99 109.545 137.346 109.768C137.709 109.983 138.118 110.091 138.573 110.091ZM143.239 110.847V104.376H144.156L144.193 105.727L144.045 105.789C144.127 105.508 144.288 105.252 144.528 105.021C144.768 104.789 145.053 104.603 145.383 104.463C145.722 104.314 146.069 104.24 146.425 104.24C146.904 104.24 147.305 104.335 147.627 104.525C147.949 104.715 148.193 105.008 148.358 105.405C148.524 105.802 148.606 106.306 148.606 106.917V110.847H147.664V106.967C147.664 106.537 147.606 106.186 147.491 105.913C147.383 105.632 147.214 105.426 146.983 105.293C146.751 105.161 146.466 105.099 146.127 105.107C145.846 105.107 145.586 105.157 145.346 105.256C145.107 105.347 144.9 105.475 144.726 105.64C144.553 105.806 144.417 105.996 144.317 106.211C144.218 106.425 144.169 106.657 144.169 106.905V110.847H143.71C143.652 110.847 143.586 110.847 143.512 110.847C143.437 110.847 143.346 110.847 143.239 110.847Z" fill="white"/>
<path d="M83.0119 131.847V122.205H84.4994V130.414H89.017V131.847H83.0119ZM94.0043 131.984C93.2605 131.984 92.5994 131.828 92.0209 131.516C91.4517 131.195 91.0017 130.759 90.6712 130.208C90.3498 129.657 90.1891 129.023 90.1891 128.307C90.1891 127.738 90.2809 127.219 90.4646 126.751C90.6482 126.282 90.9007 125.878 91.2221 125.539C91.5527 125.19 91.9429 124.923 92.3928 124.74C92.8519 124.547 93.3478 124.45 93.8803 124.45C94.3486 124.45 94.7848 124.542 95.1888 124.726C95.5928 124.9 95.9417 125.144 96.2355 125.456C96.5385 125.768 96.7681 126.14 96.9242 126.572C97.0895 126.994 97.1675 127.458 97.1583 127.963L97.1446 128.569H91.2359L90.9191 127.439H95.9188L95.7122 127.673V127.343C95.6846 127.04 95.5836 126.769 95.4091 126.53C95.2347 126.291 95.0143 126.103 94.748 125.966C94.4818 125.828 94.1925 125.759 93.8803 125.759C93.3845 125.759 92.9667 125.855 92.627 126.048C92.2872 126.232 92.0301 126.507 91.8557 126.875C91.6812 127.233 91.594 127.678 91.594 128.211C91.594 128.716 91.6996 129.156 91.9108 129.533C92.1219 129.9 92.4204 130.185 92.806 130.387C93.1917 130.589 93.637 130.69 94.142 130.69C94.5001 130.69 94.8307 130.63 95.1337 130.511C95.4459 130.391 95.781 130.176 96.1391 129.863L96.8553 130.869C96.635 131.089 96.3641 131.282 96.0427 131.447C95.7305 131.613 95.3954 131.746 95.0373 131.847C94.6883 131.939 94.344 131.984 94.0043 131.984ZM98.7001 131.847V124.616H100.119V126.103L99.8708 126.269C99.9626 125.947 100.142 125.653 100.408 125.387C100.674 125.112 100.991 124.891 101.358 124.726C101.726 124.551 102.102 124.464 102.488 124.464C103.039 124.464 103.498 124.574 103.865 124.795C104.232 125.006 104.508 125.332 104.691 125.773C104.875 126.213 104.967 126.769 104.967 127.439V131.847H103.548V127.536C103.548 127.122 103.493 126.783 103.383 126.516C103.273 126.241 103.103 126.044 102.873 125.924C102.644 125.796 102.359 125.741 102.019 125.759C101.744 125.759 101.491 125.805 101.262 125.897C101.032 125.979 100.83 126.099 100.656 126.255C100.491 126.411 100.357 126.595 100.256 126.806C100.165 127.008 100.119 127.228 100.119 127.467V131.847H99.4163C99.2969 131.847 99.1775 131.847 99.0582 131.847C98.9388 131.847 98.8194 131.847 98.7001 131.847ZM110.266 131.984C109.522 131.984 108.861 131.828 108.282 131.516C107.713 131.195 107.263 130.759 106.933 130.208C106.611 129.657 106.451 129.023 106.451 128.307C106.451 127.738 106.542 127.219 106.726 126.751C106.91 126.282 107.162 125.878 107.484 125.539C107.814 125.19 108.204 124.923 108.654 124.74C109.113 124.547 109.609 124.45 110.142 124.45C110.61 124.45 111.046 124.542 111.45 124.726C111.854 124.9 112.203 125.144 112.497 125.456C112.8 125.768 113.03 126.14 113.186 126.572C113.351 126.994 113.429 127.458 113.42 127.963L113.406 128.569H107.497L107.181 127.439H112.18L111.974 127.673V127.343C111.946 127.04 111.845 126.769 111.671 126.53C111.496 126.291 111.276 126.103 111.01 125.966C110.743 125.828 110.454 125.759 110.142 125.759C109.646 125.759 109.228 125.855 108.888 126.048C108.549 126.232 108.292 126.507 108.117 126.875C107.943 127.233 107.855 127.678 107.855 128.211C107.855 128.716 107.961 129.156 108.172 129.533C108.383 129.9 108.682 130.185 109.068 130.387C109.453 130.589 109.898 130.69 110.404 130.69C110.762 130.69 111.092 130.63 111.395 130.511C111.707 130.391 112.043 130.176 112.401 129.863L113.117 130.869C112.896 131.089 112.626 131.282 112.304 131.447C111.992 131.613 111.657 131.746 111.299 131.847C110.95 131.939 110.606 131.984 110.266 131.984ZM114.962 131.847V124.616H116.38V126.103L116.132 126.269C116.224 125.947 116.403 125.653 116.669 125.387C116.936 125.112 117.253 124.891 117.62 124.726C117.987 124.551 118.364 124.464 118.749 124.464C119.3 124.464 119.759 124.574 120.127 124.795C120.494 125.006 120.769 125.332 120.953 125.773C121.137 126.213 121.228 126.769 121.228 127.439V131.847H119.81V127.536C119.81 127.122 119.755 126.783 119.644 126.516C119.534 126.241 119.364 126.044 119.135 125.924C118.905 125.796 118.621 125.741 118.281 125.759C118.005 125.759 117.753 125.805 117.523 125.897C117.294 125.979 117.092 126.099 116.917 126.255C116.752 126.411 116.619 126.595 116.518 126.806C116.426 127.008 116.38 127.228 116.38 127.467V131.847H115.678C115.558 131.847 115.439 131.847 115.32 131.847C115.2 131.847 115.081 131.847 114.962 131.847ZM127.371 131.847V122.205H131.476C132.027 122.205 132.532 122.343 132.991 122.619C133.459 122.885 133.831 123.252 134.106 123.721C134.382 124.18 134.519 124.698 134.519 125.277C134.519 125.8 134.382 126.287 134.106 126.737C133.831 127.187 133.464 127.549 133.004 127.825C132.545 128.091 132.036 128.224 131.476 128.224H128.859V131.847H127.371ZM133.101 131.847L130.649 127.494L132.178 127.15L134.905 131.86L133.101 131.847ZM128.859 126.792H131.613C131.88 126.792 132.118 126.728 132.33 126.599C132.541 126.461 132.706 126.278 132.825 126.048C132.945 125.809 133.004 125.548 133.004 125.263C133.004 124.942 132.926 124.662 132.77 124.423C132.623 124.175 132.412 123.982 132.137 123.844C131.87 123.707 131.567 123.638 131.228 123.638H128.859V126.792ZM139.571 131.984C138.864 131.984 138.231 131.824 137.671 131.502C137.12 131.172 136.683 130.726 136.362 130.166C136.041 129.597 135.88 128.95 135.88 128.224C135.88 127.499 136.041 126.856 136.362 126.296C136.683 125.727 137.12 125.281 137.671 124.96C138.231 124.63 138.864 124.464 139.571 124.464C140.269 124.464 140.893 124.63 141.444 124.96C142.005 125.281 142.445 125.727 142.767 126.296C143.088 126.856 143.249 127.499 143.249 128.224C143.249 128.95 143.088 129.597 142.767 130.166C142.445 130.726 142.005 131.172 141.444 131.502C140.893 131.824 140.269 131.984 139.571 131.984ZM139.571 130.69C140.003 130.69 140.388 130.584 140.728 130.373C141.068 130.153 141.334 129.859 141.527 129.491C141.72 129.115 141.812 128.693 141.802 128.224C141.812 127.747 141.72 127.324 141.527 126.957C141.334 126.581 141.068 126.287 140.728 126.076C140.388 125.865 140.003 125.759 139.571 125.759C139.14 125.759 138.749 125.869 138.401 126.089C138.061 126.301 137.795 126.595 137.602 126.971C137.409 127.338 137.317 127.756 137.326 128.224C137.317 128.693 137.409 129.115 137.602 129.491C137.795 129.859 138.061 130.153 138.401 130.373C138.749 130.584 139.14 130.69 139.571 130.69ZM145.738 135.015L147.197 131.64L147.211 132.769L143.603 124.616H145.255L147.514 129.932C147.56 130.024 147.615 130.166 147.68 130.359C147.744 130.543 147.799 130.726 147.845 130.91L147.487 130.993C147.56 130.8 147.629 130.607 147.693 130.414C147.767 130.221 147.836 130.029 147.9 129.836L149.787 124.616H151.467L148.492 131.847L147.266 135.015H145.738Z" fill="white"/>
<path d="M250.24 127.095V125.145H255.347V127.095H250.24ZM261.431 131.012C260.439 131.012 259.569 130.83 258.82 130.467C258.07 130.103 257.431 129.569 256.902 128.863L258.175 127.194C258.737 127.921 259.282 128.428 259.811 128.715C260.34 129.001 260.935 129.144 261.596 129.144C261.971 129.144 262.313 129.089 262.621 128.979C262.93 128.858 263.172 128.698 263.348 128.5C263.525 128.29 263.613 128.053 263.613 127.789C263.613 127.602 263.574 127.431 263.497 127.277C263.431 127.111 263.326 126.968 263.183 126.847C263.04 126.715 262.863 126.594 262.654 126.483C262.445 126.373 262.208 126.279 261.943 126.202C261.679 126.125 261.387 126.054 261.067 125.987C260.252 125.822 259.574 125.585 259.035 125.277C258.506 124.957 258.109 124.561 257.845 124.087C257.58 123.613 257.448 123.057 257.448 122.417C257.448 121.933 257.553 121.486 257.762 121.079C257.982 120.671 258.28 120.318 258.654 120.021C259.029 119.723 259.464 119.492 259.96 119.327C260.456 119.162 260.99 119.079 261.563 119.079C262.467 119.079 263.266 119.244 263.96 119.575C264.654 119.894 265.227 120.374 265.679 121.013L264.456 122.5C264.081 121.993 263.646 121.613 263.15 121.36C262.665 121.095 262.136 120.963 261.563 120.963C261.167 120.963 260.82 121.018 260.522 121.128C260.236 121.239 260.01 121.398 259.844 121.608C259.679 121.806 259.596 122.048 259.596 122.335C259.596 122.555 259.646 122.754 259.745 122.93C259.844 123.095 259.982 123.244 260.158 123.376C260.346 123.508 260.583 123.624 260.869 123.723C261.156 123.822 261.481 123.911 261.844 123.988C262.45 124.109 262.996 124.274 263.481 124.483C263.965 124.682 264.379 124.924 264.72 125.211C265.062 125.486 265.321 125.806 265.497 126.169C265.673 126.522 265.761 126.919 265.761 127.359C265.761 128.12 265.58 128.775 265.216 129.326C264.863 129.866 264.362 130.285 263.712 130.582C263.062 130.869 262.302 131.012 261.431 131.012ZM260.439 132.351L260.506 124.781L262.01 125.326L262.076 132.351H260.439ZM262.588 125.326L261.084 124.781L261.018 117.889H262.654L262.588 125.326ZM271.33 130.847C270.746 130.847 270.201 130.742 269.694 130.533C269.198 130.323 268.763 130.037 268.388 129.673C268.025 129.299 267.738 128.863 267.529 128.368C267.319 127.872 267.215 127.326 267.215 126.731C267.215 126.401 267.253 126.048 267.33 125.673C267.418 125.299 267.545 124.902 267.71 124.483C267.887 124.054 268.091 123.607 268.322 123.145C268.553 122.682 268.823 122.197 269.132 121.69L270.669 119.079H272.718L272.785 119.244L270.818 122.484C270.498 123.012 270.217 123.514 269.975 123.988C269.732 124.45 269.523 124.897 269.347 125.326C269.181 125.745 269.044 126.153 268.934 126.549L268.487 125.045C268.653 124.693 268.856 124.373 269.099 124.087C269.341 123.8 269.611 123.558 269.909 123.36C270.206 123.161 270.515 123.012 270.834 122.913C271.165 122.814 271.501 122.765 271.842 122.765C272.482 122.765 273.071 122.941 273.611 123.293C274.151 123.635 274.581 124.092 274.9 124.665C275.231 125.238 275.396 125.866 275.396 126.549C275.396 127.376 275.22 128.114 274.867 128.764C274.525 129.403 274.046 129.91 273.429 130.285C272.812 130.659 272.112 130.847 271.33 130.847ZM271.347 128.963C271.743 128.963 272.096 128.869 272.404 128.682C272.724 128.494 272.972 128.235 273.148 127.905C273.324 127.563 273.413 127.172 273.413 126.731C273.413 126.357 273.319 126.01 273.132 125.69C272.955 125.359 272.713 125.095 272.404 124.897C272.096 124.687 271.749 124.583 271.363 124.583C270.944 124.583 270.57 124.682 270.239 124.88C269.92 125.067 269.666 125.326 269.479 125.657C269.303 125.976 269.215 126.335 269.215 126.731C269.215 127.15 269.303 127.53 269.479 127.872C269.666 128.202 269.92 128.467 270.239 128.665C270.559 128.863 270.928 128.963 271.347 128.963ZM280.758 130.896C280.02 130.896 279.342 130.748 278.725 130.45C278.119 130.141 277.634 129.734 277.271 129.227C276.907 128.709 276.725 128.136 276.725 127.508C276.725 127.133 276.775 126.786 276.874 126.467C276.984 126.147 277.138 125.861 277.337 125.607C277.546 125.354 277.794 125.128 278.081 124.93C278.378 124.72 278.714 124.539 279.089 124.384L278.956 124.847C278.67 124.726 278.406 124.583 278.163 124.417C277.932 124.252 277.728 124.065 277.552 123.855C277.386 123.635 277.26 123.404 277.171 123.161C277.083 122.908 277.039 122.643 277.039 122.368C277.039 121.773 277.205 121.239 277.535 120.765C277.877 120.291 278.328 119.916 278.89 119.641C279.452 119.354 280.075 119.211 280.758 119.211C281.452 119.211 282.08 119.354 282.642 119.641C283.204 119.916 283.65 120.291 283.981 120.765C284.323 121.239 284.493 121.773 284.493 122.368C284.493 122.643 284.449 122.908 284.361 123.161C284.273 123.404 284.146 123.63 283.981 123.839C283.827 124.037 283.628 124.225 283.386 124.401C283.144 124.566 282.863 124.715 282.543 124.847L282.46 124.45C282.813 124.572 283.133 124.731 283.419 124.93C283.705 125.128 283.953 125.359 284.163 125.624C284.372 125.888 284.532 126.18 284.642 126.5C284.763 126.819 284.824 127.155 284.824 127.508C284.824 128.147 284.642 128.726 284.278 129.243C283.915 129.75 283.425 130.153 282.807 130.45C282.201 130.748 281.518 130.896 280.758 130.896ZM280.758 129.045C281.133 129.045 281.469 128.974 281.766 128.83C282.064 128.687 282.295 128.494 282.46 128.252C282.637 128.009 282.725 127.728 282.725 127.409C282.725 127.067 282.637 126.77 282.46 126.516C282.295 126.252 282.064 126.048 281.766 125.905C281.469 125.751 281.133 125.673 280.758 125.673C280.394 125.673 280.064 125.751 279.766 125.905C279.48 126.048 279.248 126.252 279.072 126.516C278.896 126.77 278.808 127.067 278.808 127.409C278.808 127.717 278.896 127.993 279.072 128.235C279.248 128.478 279.48 128.676 279.766 128.83C280.064 128.974 280.394 129.045 280.758 129.045ZM280.758 123.855C281.089 123.855 281.381 123.795 281.634 123.674C281.898 123.552 282.102 123.387 282.246 123.178C282.389 122.968 282.46 122.726 282.46 122.451C282.46 122.164 282.389 121.916 282.246 121.707C282.102 121.486 281.898 121.316 281.634 121.194C281.381 121.062 281.089 120.996 280.758 120.996C280.438 120.996 280.146 121.062 279.882 121.194C279.629 121.316 279.43 121.486 279.287 121.707C279.144 121.916 279.072 122.164 279.072 122.451C279.072 122.726 279.144 122.968 279.287 123.178C279.43 123.387 279.629 123.552 279.882 123.674C280.146 123.795 280.438 123.855 280.758 123.855ZM287.583 131.028C287.186 131.028 286.878 130.913 286.657 130.681C286.448 130.45 286.343 130.125 286.343 129.706C286.343 129.321 286.454 129.007 286.674 128.764C286.905 128.511 287.208 128.384 287.583 128.384C287.98 128.384 288.283 128.5 288.492 128.731C288.712 128.951 288.823 129.277 288.823 129.706C288.823 130.092 288.707 130.411 288.475 130.665C288.255 130.907 287.958 131.028 287.583 131.028ZM294.761 131.012C293.824 131.012 293.02 130.775 292.348 130.301C291.687 129.816 291.174 129.133 290.811 128.252C290.458 127.359 290.282 126.296 290.282 125.062C290.282 123.828 290.458 122.77 290.811 121.889C291.174 120.996 291.687 120.313 292.348 119.839C293.02 119.354 293.824 119.112 294.761 119.112C295.697 119.112 296.502 119.354 297.174 119.839C297.846 120.313 298.358 120.996 298.711 121.889C299.074 122.77 299.256 123.828 299.256 125.062C299.256 126.296 299.074 127.359 298.711 128.252C298.358 129.133 297.846 129.816 297.174 130.301C296.502 130.775 295.697 131.012 294.761 131.012ZM294.761 129.128C295.532 129.128 296.127 128.775 296.546 128.07C296.975 127.354 297.19 126.351 297.19 125.062C297.19 123.762 296.975 122.754 296.546 122.037C296.127 121.321 295.532 120.963 294.761 120.963C293.989 120.963 293.389 121.321 292.959 122.037C292.54 122.754 292.331 123.762 292.331 125.062C292.331 126.351 292.54 127.354 292.959 128.07C293.389 128.775 293.989 129.128 294.761 129.128ZM305.187 131.012C304.251 131.012 303.447 130.775 302.774 130.301C302.113 129.816 301.601 129.133 301.237 128.252C300.885 127.359 300.708 126.296 300.708 125.062C300.708 123.828 300.885 122.77 301.237 121.889C301.601 120.996 302.113 120.313 302.774 119.839C303.447 119.354 304.251 119.112 305.187 119.112C306.124 119.112 306.928 119.354 307.601 119.839C308.273 120.313 308.785 120.996 309.138 121.889C309.501 122.77 309.683 123.828 309.683 125.062C309.683 126.296 309.501 127.359 309.138 128.252C308.785 129.133 308.273 129.816 307.601 130.301C306.928 130.775 306.124 131.012 305.187 131.012ZM305.187 129.128C305.959 129.128 306.554 128.775 306.972 128.07C307.402 127.354 307.617 126.351 307.617 125.062C307.617 123.762 307.402 122.754 306.972 122.037C306.554 121.321 305.959 120.963 305.187 120.963C304.416 120.963 303.816 121.321 303.386 122.037C302.967 122.754 302.758 123.762 302.758 125.062C302.758 126.351 302.967 127.354 303.386 128.07C303.816 128.775 304.416 129.128 305.187 129.128Z" fill="white"/>
</g>
<g opacity="0.5">
<rect x="14.4732" y="43.4185" width="326.864" height="61.3484" rx="7.91958" fill="#1C1C1C"/>
<rect x="14.4732" y="43.4185" width="326.864" height="61.3484" rx="7.91958" stroke="#262626" stroke-width="0.688659"/>
<rect x="30.6562" y="58.9648" width="30.3466" height="30.2555" rx="15.1278" fill="#CAFF33"/>
<path fill-rule="evenodd" clip-rule="evenodd" d="M48.4807 67.6975C48.2471 67.9477 48.2617 68.3387 48.5132 68.571L50.2538 70.1784L43.1354 70.1784C42.7922 70.1784 42.5139 70.4551 42.5139 70.7965C42.5139 71.1378 42.7922 71.4146 43.1354 71.4146L50.2538 71.4146L48.5132 73.0219C48.2617 73.2542 48.2471 73.6453 48.4807 73.8954C48.7142 74.1456 49.1075 74.1601 49.359 73.9278L52.2594 71.2494C52.386 71.1325 52.458 70.9683 52.458 70.7965C52.458 70.6246 52.386 70.4605 52.2594 70.3435L49.359 67.6652C49.1075 67.4329 48.7142 67.4474 48.4807 67.6975ZM43.1765 74.2904C42.9429 74.0403 42.5497 74.0258 42.2982 74.2581L39.3978 76.9365C39.2712 77.0534 39.1992 77.2175 39.1992 77.3894C39.1992 77.5613 39.2712 77.7254 39.3978 77.8423L42.2982 80.5207C42.5497 80.753 42.9429 80.7385 43.1765 80.4884C43.4101 80.2382 43.3955 79.8471 43.144 79.6149L41.4034 78.0075H48.5218C48.865 78.0075 49.1433 77.7308 49.1433 77.3894C49.1433 77.048 48.865 76.7713 48.5218 76.7713H41.4034L43.144 75.164C43.3955 74.9317 43.4101 74.5406 43.1765 74.2904Z" fill="#1C1C1C"/>
<path d="M70.7397 68.0928V60.3578H68.2605V59.4157H74.2849V60.3578H71.7066V68.0928H70.7397ZM74.8099 68.0928V61.6221H75.7396L75.7644 63.3452L75.6652 63.1096C75.7561 62.8204 75.9008 62.5518 76.0991 62.3039C76.3057 62.056 76.5495 61.8577 76.8304 61.7089C77.1114 61.5602 77.4213 61.4858 77.7601 61.4858C77.9006 61.4858 78.0328 61.4982 78.1568 61.523C78.2808 61.5395 78.3841 61.5643 78.4667 61.5973L78.2064 62.6386C78.099 62.589 77.9874 62.556 77.8717 62.5394C77.7643 62.5146 77.661 62.5022 77.5618 62.5022C77.2808 62.5022 77.0288 62.5518 76.8057 62.651C76.5825 62.7502 76.3925 62.8906 76.2354 63.0724C76.0784 63.246 75.9586 63.4485 75.876 63.6798C75.7933 63.9112 75.752 64.1592 75.752 64.4236V68.0928H74.8099ZM81.6845 68.2167C81.1226 68.2167 80.6143 68.0721 80.1598 67.7829C79.7053 67.4854 79.3458 67.0846 79.0814 66.5805C78.8169 66.0681 78.6847 65.4896 78.6847 64.8451C78.6847 64.1922 78.8211 63.6137 79.0938 63.1096C79.3665 62.6055 79.7301 62.2089 80.1846 61.9196C80.6474 61.6304 81.1639 61.4858 81.7341 61.4858C82.0729 61.4858 82.3869 61.5354 82.6762 61.6345C82.9654 61.7337 83.2216 61.8742 83.4447 62.056C83.6761 62.2295 83.8662 62.4361 84.0149 62.6758C84.1719 62.9072 84.2794 63.1592 84.3372 63.4319L84.0645 63.2956L84.1017 61.6221H85.0314V68.0928H84.0893V66.5061L84.3372 66.345C84.2794 66.5929 84.1678 66.8325 84.0025 67.0639C83.8372 67.287 83.6348 67.4854 83.3951 67.6589C83.1637 67.8325 82.8993 67.9688 82.6018 68.068C82.3126 68.1671 82.0068 68.2167 81.6845 68.2167ZM81.8952 67.3242C82.3249 67.3242 82.7092 67.2209 83.048 67.0143C83.3869 66.7995 83.6513 66.5061 83.8414 66.1342C84.0397 65.7541 84.1389 65.3244 84.1389 64.8451C84.1389 64.3657 84.0397 63.9402 83.8414 63.5683C83.6513 63.1964 83.3869 62.903 83.048 62.6882C82.7092 62.4733 82.3249 62.3659 81.8952 62.3659C81.4572 62.3659 81.0688 62.4733 80.73 62.6882C80.3995 62.903 80.135 63.1964 79.9367 63.5683C79.7466 63.9402 79.6516 64.3657 79.6516 64.8451C79.6516 65.3161 79.7466 65.7417 79.9367 66.1218C80.1267 66.4937 80.3912 66.7871 80.73 67.0019C81.0688 67.2168 81.4572 67.3242 81.8952 67.3242ZM86.8426 68.0928V61.6221H87.7599L87.7971 62.9733L87.6484 63.0353C87.731 62.7543 87.8921 62.4981 88.1318 62.2667C88.3715 62.0353 88.6566 61.8494 88.9871 61.7089C89.3259 61.5602 89.673 61.4858 90.0284 61.4858C90.5077 61.4858 90.9085 61.5808 91.2308 61.7709C91.5531 61.961 91.7968 62.2543 91.9621 62.651C92.1274 63.0477 92.21 63.5518 92.21 64.1633V68.0928H91.268V64.2129C91.268 63.7831 91.2101 63.4319 91.0944 63.1592C90.987 62.8782 90.8176 62.6716 90.5862 62.5394C90.3548 62.4072 90.0697 62.3452 89.7309 62.3535C89.4499 62.3535 89.1896 62.4031 88.9499 62.5022C88.7103 62.5931 88.5037 62.7212 88.3301 62.8865C88.1566 63.0518 88.0202 63.2419 87.9211 63.4567C87.8219 63.6716 87.7723 63.903 87.7723 64.1509V68.0928H87.3137C87.2558 68.0928 87.1897 68.0928 87.1153 68.0928C87.041 68.0928 86.9501 68.0928 86.8426 68.0928ZM96.1045 68.2167C95.5508 68.2167 95.055 68.1134 94.617 67.9068C94.179 67.7002 93.8319 67.4275 93.5757 67.0887L94.2327 66.5185C94.4723 66.8077 94.7533 67.0267 95.0756 67.1755C95.4062 67.3242 95.7739 67.3986 96.1788 67.3986C96.3854 67.3986 96.5714 67.3779 96.7367 67.3366C96.9019 67.287 97.0466 67.2168 97.1705 67.1259C97.2945 67.035 97.3895 66.9276 97.4556 66.8036C97.5217 66.6796 97.5548 66.5433 97.5548 66.3945C97.5548 66.1218 97.435 65.8946 97.1953 65.7128C97.0879 65.6384 96.935 65.564 96.7367 65.4896C96.5383 65.407 96.2987 65.3285 96.0177 65.2541C95.5549 65.1219 95.1706 64.9897 94.8649 64.8575C94.5591 64.717 94.3195 64.5558 94.1459 64.374C94.022 64.2253 93.9269 64.0641 93.8608 63.8906C93.803 63.717 93.774 63.527 93.774 63.3204C93.774 63.0559 93.8278 62.8121 93.9352 62.589C94.0509 62.3659 94.2079 62.1717 94.4062 62.0064C94.6128 61.8329 94.8525 61.7048 95.1252 61.6221C95.4062 61.5312 95.7078 61.4858 96.0301 61.4858C96.3359 61.4858 96.6375 61.5271 96.935 61.6097C97.2325 61.6924 97.5093 61.8122 97.7655 61.9692C98.0217 62.1262 98.2407 62.3122 98.4225 62.527L97.8523 63.1468C97.6953 62.9815 97.5217 62.8328 97.3317 62.7006C97.1416 62.5683 96.9391 62.4651 96.7243 62.3907C96.5177 62.3163 96.3028 62.2791 96.0797 62.2791C95.8813 62.2791 95.6954 62.3039 95.5219 62.3535C95.3566 62.4031 95.212 62.4733 95.088 62.5642C94.9723 62.6469 94.8814 62.7502 94.8153 62.8741C94.7575 62.9981 94.7285 63.1344 94.7285 63.2832C94.7285 63.4071 94.7533 63.5187 94.8029 63.6179C94.8525 63.717 94.9227 63.8038 95.0136 63.8782C95.1293 63.9691 95.2905 64.0559 95.4971 64.1385C95.7119 64.2129 95.9764 64.2914 96.2904 64.374C96.654 64.4732 96.9598 64.5765 97.2077 64.6839C97.4639 64.7831 97.6746 64.9029 97.8399 65.0434C98.063 65.2087 98.22 65.3987 98.3109 65.6136C98.4101 65.8285 98.4597 66.0722 98.4597 66.345C98.4597 66.7086 98.3564 67.0309 98.1498 67.3118C97.9515 67.5928 97.6746 67.8159 97.3193 67.9812C96.9639 68.1382 96.559 68.2167 96.1045 68.2167ZM102.445 68.2167C101.883 68.2167 101.375 68.0721 100.92 67.7829C100.466 67.4854 100.106 67.0846 99.842 66.5805C99.5776 66.0681 99.4453 65.4896 99.4453 64.8451C99.4453 64.1922 99.5817 63.6137 99.8544 63.1096C100.127 62.6055 100.491 62.2089 100.945 61.9196C101.408 61.6304 101.925 61.4858 102.495 61.4858C102.834 61.4858 103.148 61.5354 103.437 61.6345C103.726 61.7337 103.982 61.8742 104.205 62.056C104.437 62.2295 104.627 62.4361 104.776 62.6758C104.933 62.9072 105.04 63.1592 105.098 63.4319L104.825 63.2956L104.862 61.6221H105.792V68.0928H104.85V66.5061L105.098 66.345C105.04 66.5929 104.928 66.8325 104.763 67.0639C104.598 67.287 104.395 67.4854 104.156 67.6589C103.924 67.8325 103.66 67.9688 103.362 68.068C103.073 68.1671 102.767 68.2167 102.445 68.2167ZM102.656 67.3242C103.086 67.3242 103.47 67.2209 103.809 67.0143C104.148 66.7995 104.412 66.5061 104.602 66.1342C104.8 65.7541 104.9 65.3244 104.9 64.8451C104.9 64.3657 104.8 63.9402 104.602 63.5683C104.412 63.1964 104.148 62.903 103.809 62.6882C103.47 62.4733 103.086 62.3659 102.656 62.3659C102.218 62.3659 101.829 62.4733 101.491 62.6882C101.16 62.903 100.896 63.1964 100.697 63.5683C100.507 63.9402 100.412 64.3657 100.412 64.8451C100.412 65.3161 100.507 65.7417 100.697 66.1218C100.887 66.4937 101.152 66.7871 101.491 67.0019C101.829 67.2168 102.218 67.3242 102.656 67.3242ZM110.33 68.2167C109.719 68.2167 109.173 68.0721 108.694 67.7829C108.215 67.4854 107.835 67.0846 107.554 66.5805C107.281 66.0681 107.145 65.4896 107.145 64.8451C107.145 64.2005 107.281 63.6261 107.554 63.122C107.835 62.6097 108.215 62.2089 108.694 61.9196C109.173 61.6304 109.723 61.4858 110.343 61.4858C110.896 61.4858 111.401 61.5973 111.855 61.8205C112.31 62.0353 112.673 62.337 112.946 62.7254L112.4 63.3947C112.243 63.1881 112.053 63.0063 111.83 62.8493C111.615 62.6923 111.38 62.5725 111.124 62.4898C110.876 62.3989 110.628 62.3535 110.38 62.3535C109.942 62.3535 109.549 62.4651 109.202 62.6882C108.855 62.903 108.578 63.1964 108.372 63.5683C108.173 63.9402 108.074 64.3657 108.074 64.8451C108.074 65.3244 108.173 65.7541 108.372 66.1342C108.578 66.5061 108.855 66.7995 109.202 67.0143C109.549 67.2292 109.938 67.3366 110.368 67.3366C110.615 67.3366 110.859 67.2994 111.099 67.2251C111.339 67.1424 111.566 67.0267 111.781 66.878C111.996 66.7292 112.194 66.5433 112.376 66.3202L112.921 66.9895C112.64 67.3614 112.264 67.6589 111.793 67.882C111.322 68.1052 110.834 68.2167 110.33 68.2167ZM115.021 68.0928V59.9239H115.95V68.0928H115.021ZM113.558 62.5146V61.6221H117.587V62.5146H113.558ZM118.976 68.0928V61.6221H119.906V68.0928H118.976ZM119.435 60.2214C119.203 60.2214 119.026 60.1636 118.902 60.0479C118.786 59.9239 118.728 59.7586 118.728 59.552C118.728 59.3454 118.79 59.1801 118.914 59.0562C119.038 58.9322 119.212 58.8702 119.435 58.8702C119.658 58.8702 119.831 58.9322 119.955 59.0562C120.079 59.1719 120.141 59.3372 120.141 59.552C120.141 59.7504 120.079 59.9115 119.955 60.0355C119.831 60.1594 119.658 60.2214 119.435 60.2214ZM124.799 68.2167C124.155 68.2167 123.581 68.0721 123.076 67.7829C122.581 67.4936 122.188 67.0928 121.899 66.5805C121.618 66.0681 121.477 65.4855 121.477 64.8327C121.477 64.1881 121.618 63.6137 121.899 63.1096C122.188 62.6055 122.581 62.2089 123.076 61.9196C123.581 61.6304 124.155 61.4858 124.799 61.4858C125.436 61.4858 126.002 61.6304 126.498 61.9196C127.002 62.2089 127.394 62.6055 127.675 63.1096C127.965 63.6137 128.109 64.1881 128.109 64.8327C128.109 65.4855 127.965 66.0681 127.675 66.5805C127.394 67.0928 127.002 67.4936 126.498 67.7829C126.002 68.0721 125.436 68.2167 124.799 68.2167ZM124.799 67.3366C125.254 67.3366 125.659 67.2292 126.014 67.0143C126.37 66.7912 126.646 66.4937 126.845 66.1218C127.043 65.7417 127.142 65.312 127.142 64.8327C127.142 64.3534 127.043 63.9278 126.845 63.5559C126.646 63.184 126.37 62.8948 126.014 62.6882C125.659 62.4733 125.254 62.3659 124.799 62.3659C124.345 62.3659 123.936 62.4733 123.572 62.6882C123.217 62.8948 122.936 63.1881 122.729 63.5683C122.531 63.9402 122.436 64.3616 122.444 64.8327C122.436 65.312 122.531 65.7417 122.729 66.1218C122.936 66.4937 123.217 66.7912 123.572 67.0143C123.936 67.2292 124.345 67.3366 124.799 67.3366ZM129.466 68.0928V61.6221H130.383L130.42 62.9733L130.271 63.0353C130.354 62.7543 130.515 62.4981 130.755 62.2667C130.994 62.0353 131.279 61.8494 131.61 61.7089C131.949 61.5602 132.296 61.4858 132.651 61.4858C133.131 61.4858 133.531 61.5808 133.854 61.7709C134.176 61.961 134.42 62.2543 134.585 62.651C134.75 63.0477 134.833 63.5518 134.833 64.1633V68.0928H133.891V64.2129C133.891 63.7831 133.833 63.4319 133.717 63.1592C133.61 62.8782 133.44 62.6716 133.209 62.5394C132.978 62.4072 132.693 62.3452 132.354 62.3535C132.073 62.3535 131.812 62.4031 131.573 62.5022C131.333 62.5931 131.127 62.7212 130.953 62.8865C130.779 63.0518 130.643 63.2419 130.544 63.4567C130.445 63.6716 130.395 63.903 130.395 64.1509V68.0928H129.937C129.879 68.0928 129.813 68.0928 129.738 68.0928C129.664 68.0928 129.573 68.0928 129.466 68.0928Z" fill="white"/>
<path d="M69.2384 89.0928V79.4515H70.6984L74.2106 85.1674L73.5081 85.1536L77.0616 79.4515H78.4389V89.0928H76.9514V85.1399C76.9514 84.3135 76.9698 83.5697 77.0065 82.9086C77.0524 82.2475 77.1259 81.591 77.2269 80.939L77.4197 81.4487L74.2657 86.3244H73.3566L70.299 81.5037L70.4505 80.939C70.5515 81.5543 70.6204 82.1878 70.6571 82.8397C70.703 83.4825 70.7259 84.2492 70.7259 85.1399V89.0928H69.2384ZM83.5661 89.2305C82.9693 89.2305 82.4229 89.0652 81.9271 88.7347C81.4404 88.4041 81.0502 87.9542 80.7564 87.3849C80.4625 86.8156 80.3156 86.1729 80.3156 85.4567C80.3156 84.7313 80.4625 84.0885 80.7564 83.5284C81.0594 82.9591 81.4634 82.5138 81.9684 82.1924C82.4826 81.871 83.0565 81.7103 83.6901 81.7103C84.0665 81.7103 84.4109 81.7654 84.7231 81.8756C85.0352 81.9858 85.3061 82.1419 85.5357 82.3439C85.7744 82.5367 85.9672 82.7617 86.1141 83.0188C86.2702 83.2759 86.3667 83.5514 86.4034 83.8452L86.0866 83.735V81.8619H87.519V89.0928H86.0866V87.3711L86.4172 87.2747C86.3621 87.5226 86.2473 87.766 86.0728 88.0047C85.9075 88.2342 85.6918 88.4408 85.4255 88.6245C85.1684 88.8081 84.8791 88.955 84.5578 89.0652C84.2456 89.1754 83.915 89.2305 83.5661 89.2305ZM83.938 87.9221C84.3695 87.9221 84.7506 87.8165 85.0812 87.6053C85.4117 87.3941 85.6688 87.1048 85.8525 86.7376C86.0453 86.3611 86.1417 85.9341 86.1417 85.4567C86.1417 84.9884 86.0453 84.5706 85.8525 84.2033C85.6688 83.836 85.4117 83.5468 85.0812 83.3356C84.7506 83.1244 84.3695 83.0188 83.938 83.0188C83.5156 83.0188 83.1391 83.1244 82.8086 83.3356C82.4872 83.5468 82.2301 83.836 82.0373 84.2033C81.8536 84.5706 81.7618 84.9884 81.7618 85.4567C81.7618 85.9341 81.8536 86.3611 82.0373 86.7376C82.2301 87.1048 82.4872 87.3941 82.8086 87.6053C83.1391 87.8165 83.5156 87.9221 83.938 87.9221ZM89.4998 89.0928V81.8619H90.9322V84.1344L90.7944 83.5835C90.8954 83.2346 91.0653 82.9178 91.3041 82.6332C91.552 82.3485 91.832 82.1235 92.1442 81.9583C92.4656 81.793 92.7961 81.7103 93.1359 81.7103C93.292 81.7103 93.4389 81.7241 93.5766 81.7517C93.7235 81.7792 93.8383 81.8114 93.921 81.8481L93.5491 83.3907C93.4389 83.3448 93.3149 83.308 93.1772 83.2805C93.0487 83.2438 92.9201 83.2254 92.7916 83.2254C92.5436 83.2254 92.3049 83.2759 92.0753 83.3769C91.855 83.4687 91.6576 83.6019 91.4831 83.7763C91.3178 83.9416 91.1847 84.139 91.0837 84.3686C90.9827 84.5889 90.9322 84.8323 90.9322 85.0986V89.0928H89.4998ZM96.3494 86.834L96.2806 85.2914L99.7377 81.8619H101.652L96.3494 86.834ZM95.0548 89.0928V78.9006H96.4734V89.0928H95.0548ZM99.9305 89.0928L97.2034 85.9112L98.2088 84.9884L101.749 89.0928H99.9305ZM110.076 89.2305C109.553 89.2305 109.066 89.1616 108.616 89.0239C108.176 88.8862 107.772 88.6796 107.404 88.4041C107.046 88.1195 106.725 87.7705 106.44 87.3574L107.459 86.1866C107.909 86.8294 108.341 87.2747 108.754 87.5226C109.167 87.7705 109.658 87.8945 110.228 87.8945C110.577 87.8945 110.893 87.8394 111.178 87.7292C111.463 87.619 111.688 87.4675 111.853 87.2747C112.018 87.0819 112.101 86.8615 112.101 86.6136C112.101 86.4483 112.073 86.2922 112.018 86.1453C111.963 85.9984 111.876 85.8653 111.757 85.7459C111.646 85.6265 111.499 85.5163 111.316 85.4153C111.141 85.3143 110.935 85.2271 110.696 85.1536C110.457 85.071 110.182 85.0021 109.87 84.947C109.374 84.846 108.942 84.7129 108.575 84.5476C108.208 84.3823 107.9 84.1757 107.652 83.9278C107.404 83.6799 107.221 83.3999 107.101 83.0877C106.982 82.7663 106.922 82.4082 106.922 82.0134C106.922 81.6277 107.005 81.2696 107.17 80.939C107.345 80.6085 107.579 80.3238 107.873 80.0851C108.176 79.8372 108.529 79.649 108.933 79.5204C109.337 79.3827 109.773 79.3138 110.242 79.3138C110.737 79.3138 111.192 79.3781 111.605 79.5066C112.018 79.6352 112.386 79.828 112.707 80.0851C113.028 80.333 113.295 80.6406 113.506 81.0079L112.459 82.0409C112.275 81.7379 112.069 81.4854 111.839 81.2834C111.61 81.0722 111.357 80.9161 111.082 80.8151C110.806 80.7049 110.512 80.6498 110.2 80.6498C109.842 80.6498 109.53 80.7049 109.264 80.8151C108.997 80.9253 108.786 81.0814 108.63 81.2834C108.483 81.4762 108.41 81.7058 108.41 81.972C108.41 82.1649 108.446 82.3439 108.52 82.5092C108.593 82.6653 108.704 82.8076 108.85 82.9362C109.007 83.0555 109.213 83.1657 109.47 83.2667C109.727 83.3585 110.035 83.4412 110.393 83.5146C110.898 83.6248 111.348 83.7671 111.743 83.9416C112.138 84.1069 112.473 84.3043 112.748 84.5338C113.024 84.7634 113.23 85.0205 113.368 85.3051C113.515 85.5898 113.588 85.8974 113.588 86.228C113.588 86.8432 113.446 87.3757 113.161 87.8256C112.877 88.2756 112.473 88.6245 111.949 88.8724C111.426 89.1111 110.802 89.2305 110.076 89.2305ZM115.31 89.0928V81.8619H116.743V83.4044L116.481 83.5697C116.555 83.331 116.669 83.1014 116.825 82.8811C116.991 82.6607 117.188 82.4679 117.418 82.3026C117.656 82.1281 117.909 81.9904 118.175 81.8894C118.451 81.7884 118.731 81.7379 119.015 81.7379C119.429 81.7379 119.791 81.8068 120.103 81.9445C120.416 82.0822 120.673 82.2888 120.875 82.5643C121.077 82.8397 121.224 83.1841 121.315 83.5973L121.095 83.5422L121.192 83.308C121.293 83.0968 121.43 82.8994 121.605 82.7158C121.788 82.523 121.995 82.3531 122.225 82.2062C122.454 82.0593 122.697 81.9445 122.955 81.8619C123.212 81.7792 123.464 81.7379 123.712 81.7379C124.254 81.7379 124.699 81.8481 125.048 82.0684C125.406 82.2888 125.672 82.624 125.847 83.0739C126.031 83.5238 126.122 84.0839 126.122 84.7542V89.0928H124.69V84.8369C124.69 84.4237 124.635 84.0885 124.525 83.8314C124.424 83.5651 124.268 83.3677 124.056 83.2392C123.845 83.1106 123.574 83.0463 123.244 83.0463C122.987 83.0463 122.743 83.0923 122.514 83.1841C122.293 83.2667 122.101 83.3861 121.935 83.5422C121.77 83.6983 121.641 83.8819 121.55 84.0931C121.458 84.2951 121.412 84.5201 121.412 84.768V89.0928H119.979V84.8093C119.979 84.4328 119.924 84.1161 119.814 83.859C119.704 83.5927 119.543 83.3907 119.332 83.2529C119.121 83.1152 118.864 83.0463 118.561 83.0463C118.304 83.0463 118.065 83.0923 117.845 83.1841C117.624 83.2667 117.431 83.3861 117.266 83.5422C117.101 83.6891 116.972 83.8681 116.881 84.0793C116.789 84.2813 116.743 84.5017 116.743 84.7404V89.0928H115.31ZM128.256 89.0928V81.8619H129.674V89.0928H128.256ZM128.944 80.2642C128.641 80.2642 128.407 80.1861 128.242 80.03C128.077 79.8739 127.994 79.6536 127.994 79.3689C127.994 79.1026 128.077 78.8868 128.242 78.7216C128.416 78.5563 128.651 78.4736 128.944 78.4736C129.247 78.4736 129.482 78.5517 129.647 78.7078C129.812 78.8639 129.895 79.0843 129.895 79.3689C129.895 79.6352 129.808 79.851 129.633 80.0162C129.468 80.1815 129.238 80.2642 128.944 80.2642ZM132.75 89.0928V80.0162H134.169V89.0928H132.75ZM131.249 83.2392V81.8619H135.849V83.2392H131.249ZM137.141 89.0928V78.9006H138.56V83.3494L138.312 83.5146C138.404 83.1933 138.583 82.8994 138.849 82.6332C139.115 82.3577 139.432 82.1373 139.799 81.972C140.167 81.7976 140.543 81.7103 140.929 81.7103C141.48 81.7103 141.939 81.8205 142.306 82.0409C142.673 82.2521 142.949 82.5781 143.132 83.0188C143.316 83.4595 143.408 84.0151 143.408 84.6854V89.0928H141.989V84.7818C141.989 84.3686 141.934 84.0288 141.824 83.7626C141.714 83.4871 141.544 83.2897 141.314 83.1703C141.085 83.0418 140.8 82.9867 140.46 83.005C140.185 83.005 139.932 83.0509 139.703 83.1428C139.473 83.2254 139.271 83.3448 139.097 83.5009C138.932 83.657 138.798 83.8406 138.697 84.0518C138.606 84.2538 138.56 84.4742 138.56 84.7129V89.0928H137.857C137.738 89.0928 137.618 89.0928 137.499 89.0928C137.38 89.0928 137.26 89.0928 137.141 89.0928Z" fill="white"/>
<path d="M264.014 84.341V82.3907H269.121V84.341H264.014ZM275.205 88.2581C274.213 88.2581 273.342 88.0762 272.593 87.7126C271.844 87.349 271.205 86.8146 270.676 86.1094L271.949 84.4401C272.51 85.1673 273.056 85.6742 273.585 85.9607C274.114 86.2472 274.709 86.3904 275.37 86.3904C275.744 86.3904 276.086 86.3353 276.395 86.2251C276.703 86.1039 276.945 85.9442 277.122 85.7458C277.298 85.5365 277.386 85.2996 277.386 85.0351C277.386 84.8478 277.348 84.677 277.27 84.5228C277.204 84.3575 277.1 84.2142 276.956 84.093C276.813 83.9608 276.637 83.8396 276.428 83.7294C276.218 83.6192 275.981 83.5256 275.717 83.4485C275.452 83.3713 275.16 83.2997 274.841 83.2336C274.026 83.0683 273.348 82.8314 272.808 82.5229C272.279 82.2034 271.882 81.8067 271.618 81.3329C271.354 80.8591 271.221 80.3027 271.221 79.6636C271.221 79.1788 271.326 78.7325 271.535 78.3248C271.756 77.9171 272.053 77.5646 272.428 77.267C272.802 76.9695 273.238 76.7382 273.734 76.5729C274.229 76.4076 274.764 76.325 275.337 76.325C276.24 76.325 277.039 76.4902 277.733 76.8208C278.427 77.1403 279 77.6196 279.452 78.2587L278.229 79.7462C277.854 79.2394 277.419 78.8592 276.923 78.6058C276.439 78.3414 275.91 78.2091 275.337 78.2091C274.94 78.2091 274.593 78.2642 274.295 78.3744C274.009 78.4846 273.783 78.6444 273.618 78.8537C273.453 79.0521 273.37 79.2945 273.37 79.5809C273.37 79.8013 273.419 79.9996 273.519 80.1759C273.618 80.3412 273.756 80.49 273.932 80.6222C274.119 80.7544 274.356 80.8701 274.643 80.9693C274.929 81.0684 275.254 81.1566 275.618 81.2337C276.224 81.3549 276.769 81.5202 277.254 81.7296C277.739 81.9279 278.152 82.1703 278.494 82.4568C278.835 82.7322 279.094 83.0518 279.27 83.4154C279.447 83.768 279.535 84.1647 279.535 84.6054C279.535 85.3657 279.353 86.0213 278.989 86.5722C278.637 87.1121 278.135 87.5308 277.485 87.8283C276.835 88.1148 276.075 88.2581 275.205 88.2581ZM274.213 89.5968L274.279 82.0271L275.783 82.5725L275.849 89.5968H274.213ZM276.361 82.5725L274.857 82.0271L274.791 75.135H276.428L276.361 82.5725ZM285.104 88.0928C284.52 88.0928 283.974 87.9881 283.467 87.7787C282.971 87.5694 282.536 87.2829 282.162 86.9193C281.798 86.5447 281.511 86.1094 281.302 85.6136C281.093 85.1178 280.988 84.5723 280.988 83.9773C280.988 83.6468 281.027 83.2942 281.104 82.9196C281.192 82.5449 281.319 82.1483 281.484 81.7296C281.66 81.2998 281.864 80.8536 282.095 80.3908C282.327 79.928 282.597 79.4432 282.905 78.9364L284.442 76.325H286.492L286.558 76.4902L284.591 79.7297C284.272 80.2586 283.991 80.7599 283.748 81.2337C283.506 81.6965 283.296 82.1428 283.12 82.5725C282.955 82.9912 282.817 83.3989 282.707 83.7955L282.261 82.2915C282.426 81.9389 282.63 81.6194 282.872 81.3329C283.115 81.0464 283.385 80.804 283.682 80.6057C283.98 80.4073 284.288 80.2586 284.608 80.1594C284.938 80.0603 285.274 80.0107 285.616 80.0107C286.255 80.0107 286.844 80.187 287.384 80.5396C287.924 80.8811 288.354 81.3384 288.674 81.9114C289.004 82.4843 289.169 83.1124 289.169 83.7955C289.169 84.6219 288.993 85.3602 288.64 86.0103C288.299 86.6493 287.82 87.1562 287.203 87.5308C286.585 87.9055 285.886 88.0928 285.104 88.0928ZM285.12 86.2086C285.517 86.2086 285.869 86.1149 286.178 85.9276C286.497 85.7403 286.745 85.4814 286.922 85.1508C287.098 84.8092 287.186 84.4181 287.186 83.9773C287.186 83.6027 287.092 83.2556 286.905 82.9361C286.729 82.6055 286.486 82.3411 286.178 82.1428C285.869 81.9334 285.522 81.8287 285.137 81.8287C284.718 81.8287 284.343 81.9279 284.013 82.1262C283.693 82.3135 283.44 82.5725 283.252 82.903C283.076 83.2226 282.988 83.5807 282.988 83.9773C282.988 84.3961 283.076 84.7762 283.252 85.1178C283.44 85.4483 283.693 85.7128 284.013 85.9111C284.332 86.1094 284.701 86.2086 285.12 86.2086ZM294.531 88.1424C293.793 88.1424 293.116 87.9936 292.499 87.6961C291.893 87.3876 291.408 86.9799 291.044 86.473C290.68 85.9552 290.499 85.3822 290.499 84.7542C290.499 84.3795 290.548 84.0324 290.647 83.7129C290.758 83.3934 290.912 83.1069 291.11 82.8535C291.32 82.6 291.567 82.3741 291.854 82.1758C292.151 81.9665 292.488 81.7847 292.862 81.6304L292.73 82.0932C292.443 81.972 292.179 81.8287 291.937 81.6635C291.705 81.4982 291.501 81.3109 291.325 81.1015C291.16 80.8811 291.033 80.6497 290.945 80.4073C290.857 80.1539 290.813 79.8895 290.813 79.614C290.813 79.019 290.978 78.4846 291.309 78.0108C291.65 77.537 292.102 77.1624 292.664 76.8869C293.226 76.6004 293.848 76.4572 294.531 76.4572C295.226 76.4572 295.854 76.6004 296.416 76.8869C296.978 77.1624 297.424 77.537 297.754 78.0108C298.096 78.4846 298.267 79.019 298.267 79.614C298.267 79.8895 298.223 80.1539 298.135 80.4073C298.046 80.6497 297.92 80.8756 297.754 81.085C297.6 81.2833 297.402 81.4706 297.159 81.6469C296.917 81.8122 296.636 81.961 296.316 82.0932L296.234 81.6965C296.586 81.8177 296.906 81.9775 297.192 82.1758C297.479 82.3741 297.727 82.6055 297.936 82.87C298.146 83.1344 298.305 83.4264 298.416 83.746C298.537 84.0655 298.597 84.4016 298.597 84.7542C298.597 85.3932 298.416 85.9717 298.052 86.4896C297.688 86.9964 297.198 87.3986 296.581 87.6961C295.975 87.9936 295.292 88.1424 294.531 88.1424ZM294.531 86.2912C294.906 86.2912 295.242 86.2196 295.54 86.0764C295.837 85.9331 296.069 85.7403 296.234 85.4979C296.41 85.2555 296.498 84.9745 296.498 84.655C296.498 84.3134 296.41 84.0159 296.234 83.7625C296.069 83.498 295.837 83.2942 295.54 83.151C295.242 82.9967 294.906 82.9196 294.531 82.9196C294.168 82.9196 293.837 82.9967 293.54 83.151C293.253 83.2942 293.022 83.498 292.846 83.7625C292.669 84.0159 292.581 84.3134 292.581 84.655C292.581 84.9635 292.669 85.239 292.846 85.4814C293.022 85.7238 293.253 85.9221 293.54 86.0764C293.837 86.2196 294.168 86.2912 294.531 86.2912ZM294.531 81.1015C294.862 81.1015 295.154 81.0409 295.407 80.9197C295.672 80.7985 295.876 80.6332 296.019 80.4239C296.162 80.2145 296.234 79.9721 296.234 79.6966C296.234 79.4102 296.162 79.1622 296.019 78.9529C295.876 78.7325 295.672 78.5617 295.407 78.4405C295.154 78.3083 294.862 78.2422 294.531 78.2422C294.212 78.2422 293.92 78.3083 293.655 78.4405C293.402 78.5617 293.204 78.7325 293.06 78.9529C292.917 79.1622 292.846 79.4102 292.846 79.6966C292.846 79.9721 292.917 80.2145 293.06 80.4239C293.204 80.6332 293.402 80.7985 293.655 80.9197C293.92 81.0409 294.212 81.1015 294.531 81.1015ZM301.356 88.2746C300.96 88.2746 300.651 88.1589 300.431 87.9275C300.222 87.6961 300.117 87.3711 300.117 86.9524C300.117 86.5667 300.227 86.2527 300.447 86.0103C300.679 85.7568 300.982 85.6301 301.356 85.6301C301.753 85.6301 302.056 85.7458 302.265 85.9772C302.486 86.1976 302.596 86.5226 302.596 86.9524C302.596 87.338 302.48 87.6575 302.249 87.911C302.029 88.1534 301.731 88.2746 301.356 88.2746ZM308.534 88.2581C307.598 88.2581 306.793 88.0212 306.121 87.5474C305.46 87.0625 304.948 86.3794 304.584 85.4979C304.231 84.6054 304.055 83.5421 304.055 82.308C304.055 81.074 304.231 80.0162 304.584 79.1347C304.948 78.2422 305.46 77.559 306.121 77.0852C306.793 76.6004 307.598 76.358 308.534 76.358C309.471 76.358 310.275 76.6004 310.947 77.0852C311.619 77.559 312.132 78.2422 312.484 79.1347C312.848 80.0162 313.03 81.074 313.03 82.308C313.03 83.5421 312.848 84.6054 312.484 85.4979C312.132 86.3794 311.619 87.0625 310.947 87.5474C310.275 88.0212 309.471 88.2581 308.534 88.2581ZM308.534 86.3739C309.305 86.3739 309.9 86.0213 310.319 85.3161C310.749 84.5999 310.964 83.5972 310.964 82.308C310.964 81.0078 310.749 79.9996 310.319 79.2834C309.9 78.5672 309.305 78.2091 308.534 78.2091C307.763 78.2091 307.162 78.5672 306.733 79.2834C306.314 79.9996 306.105 81.0078 306.105 82.308C306.105 83.5972 306.314 84.5999 306.733 85.3161C307.162 86.0213 307.763 86.3739 308.534 86.3739ZM318.961 88.2581C318.024 88.2581 317.22 88.0212 316.548 87.5474C315.887 87.0625 315.374 86.3794 315.011 85.4979C314.658 84.6054 314.482 83.5421 314.482 82.308C314.482 81.074 314.658 80.0162 315.011 79.1347C315.374 78.2422 315.887 77.559 316.548 77.0852C317.22 76.6004 318.024 76.358 318.961 76.358C319.897 76.358 320.702 76.6004 321.374 77.0852C322.046 77.559 322.558 78.2422 322.911 79.1347C323.275 80.0162 323.456 81.074 323.456 82.308C323.456 83.5421 323.275 84.6054 322.911 85.4979C322.558 86.3794 322.046 87.0625 321.374 87.5474C320.702 88.0212 319.897 88.2581 318.961 88.2581ZM318.961 86.3739C319.732 86.3739 320.327 86.0213 320.746 85.3161C321.176 84.5999 321.39 83.5972 321.39 82.308C321.39 81.0078 321.176 79.9996 320.746 79.2834C320.327 78.5672 319.732 78.2091 318.961 78.2091C318.19 78.2091 317.589 78.5672 317.159 79.2834C316.741 79.9996 316.531 81.0078 316.531 82.308C316.531 83.5972 316.741 84.5999 317.159 85.3161C317.589 86.0213 318.19 86.3739 318.961 86.3739Z" fill="white"/>
</g>
<rect x="0.699798" y="0.663666" width="354.411" height="61.3484" rx="7.91958" fill="#1C1C1C"/>
<rect x="0.699798" y="0.663666" width="354.411" height="61.3484" rx="7.91958" stroke="#262626" stroke-width="0.688659"/>
<rect x="16.8828" y="16.21" width="30.3466" height="30.2555" rx="15.1278" fill="#CAFF33"/>
<path fill-rule="evenodd" clip-rule="evenodd" d="M34.7092 24.9426C34.4756 25.1928 34.4902 25.5839 34.7417 25.8161L36.4823 27.4235L29.3639 27.4235C29.0207 27.4235 28.7424 27.7002 28.7424 28.0416C28.7424 28.3829 29.0207 28.6597 29.3639 28.6597L36.4823 28.6597L34.7417 30.267C34.4902 30.4993 34.4756 30.8904 34.7092 31.1405C34.9427 31.3907 35.336 31.4052 35.5875 31.1729L38.4879 28.4945C38.6145 28.3776 38.6865 28.2135 38.6865 28.0416C38.6865 27.8697 38.6145 27.7056 38.4879 27.5887L35.5875 24.9103C35.336 24.678 34.9427 24.6925 34.7092 24.9426ZM29.405 31.5356C29.1715 31.2854 28.7782 31.2709 28.5267 31.5032L25.6263 34.1816C25.4997 34.2985 25.4277 34.4627 25.4277 34.6345C25.4277 34.8064 25.4997 34.9705 25.6263 35.0875L28.5267 37.7658C28.7782 37.9981 29.1715 37.9836 29.405 37.7335C29.6386 37.4833 29.624 37.0923 29.3725 36.86L27.6319 35.2526H34.7503C35.0935 35.2526 35.3718 34.9759 35.3718 34.6345C35.3718 34.2932 35.0935 34.0164 34.7503 34.0164H27.6319L29.3725 32.4091C29.624 32.1768 29.6386 31.7857 29.405 31.5356Z" fill="#1C1C1C"/>
<path d="M56.9663 25.3379V17.6029H54.4871V16.6608H60.5115V17.6029H57.9332V25.3379H56.9663ZM61.0365 25.3379V18.8672H61.9662L61.991 20.5903L61.8918 20.3548C61.9827 20.0655 62.1273 19.7969 62.3257 19.549C62.5323 19.3011 62.776 19.1028 63.057 18.954C63.338 18.8053 63.6479 18.7309 63.9867 18.7309C64.1272 18.7309 64.2594 18.7433 64.3834 18.7681C64.5073 18.7846 64.6106 18.8094 64.6933 18.8425L64.433 19.8837C64.3255 19.8341 64.214 19.8011 64.0983 19.7845C63.9908 19.7598 63.8875 19.7474 63.7884 19.7474C63.5074 19.7474 63.2553 19.7969 63.0322 19.8961C62.8091 19.9953 62.619 20.1358 62.462 20.3176C62.305 20.4911 62.1852 20.6936 62.1025 20.925C62.0199 21.1564 61.9786 21.4043 61.9786 21.6687V25.3379H61.0365ZM67.9111 25.4618C67.3491 25.4618 66.8409 25.3172 66.3864 25.028C65.9319 24.7305 65.5724 24.3297 65.3079 23.8256C65.0435 23.3132 64.9113 22.7348 64.9113 22.0902C64.9113 21.4373 65.0476 20.8589 65.3203 20.3548C65.593 19.8507 65.9566 19.454 66.4112 19.1647C66.8739 18.8755 67.3904 18.7309 67.9606 18.7309C68.2995 18.7309 68.6135 18.7805 68.9027 18.8796C69.192 18.9788 69.4481 19.1193 69.6713 19.3011C69.9027 19.4746 70.0927 19.6812 70.2415 19.9209C70.3985 20.1523 70.5059 20.4043 70.5638 20.677L70.2911 20.5407L70.3283 18.8672H71.2579V25.3379H70.3159V23.7512L70.5638 23.5901C70.5059 23.838 70.3944 24.0776 70.2291 24.309C70.0638 24.5322 69.8613 24.7305 69.6217 24.904C69.3903 25.0776 69.1259 25.2139 68.8284 25.3131C68.5391 25.4123 68.2334 25.4618 67.9111 25.4618ZM68.1218 24.5693C68.5515 24.5693 68.9358 24.466 69.2746 24.2595C69.6134 24.0446 69.8779 23.7512 70.0679 23.3793C70.2663 22.9992 70.3654 22.5695 70.3654 22.0902C70.3654 21.6109 70.2663 21.1853 70.0679 20.8134C69.8779 20.4415 69.6134 20.1482 69.2746 19.9333C68.9358 19.7184 68.5515 19.611 68.1218 19.611C67.6838 19.611 67.2954 19.7184 66.9566 19.9333C66.626 20.1482 66.3616 20.4415 66.1632 20.8134C65.9732 21.1853 65.8781 21.6109 65.8781 22.0902C65.8781 22.5612 65.9732 22.9868 66.1632 23.3669C66.3533 23.7388 66.6178 24.0322 66.9566 24.2471C67.2954 24.4619 67.6838 24.5693 68.1218 24.5693ZM73.0692 25.3379V18.8672H73.9865L74.0237 20.2184L73.8749 20.2804C73.9576 19.9994 74.1187 19.7432 74.3584 19.5118C74.598 19.2804 74.8831 19.0945 75.2137 18.954C75.5525 18.8053 75.8996 18.7309 76.2549 18.7309C76.7342 18.7309 77.135 18.8259 77.4573 19.016C77.7796 19.2061 78.0234 19.4994 78.1887 19.8961C78.354 20.2928 78.4366 20.7969 78.4366 21.4084V25.3379H77.4945V21.458C77.4945 21.0283 77.4367 20.677 77.321 20.4043C77.2135 20.1234 77.0441 19.9168 76.8127 19.7845C76.5814 19.6523 76.2962 19.5903 75.9574 19.5986C75.6765 19.5986 75.4161 19.6482 75.1765 19.7474C74.9368 19.8383 74.7302 19.9663 74.5567 20.1316C74.3832 20.2969 74.2468 20.487 74.1476 20.7018C74.0485 20.9167 73.9989 21.1481 73.9989 21.396V25.3379H73.5402C73.4824 25.3379 73.4163 25.3379 73.3419 25.3379C73.2675 25.3379 73.1766 25.3379 73.0692 25.3379ZM82.331 25.4618C81.7774 25.4618 81.2815 25.3586 80.8435 25.152C80.4055 24.9454 80.0585 24.6726 79.8023 24.3338L80.4593 23.7636C80.6989 24.0529 80.9799 24.2718 81.3022 24.4206C81.6327 24.5693 82.0005 24.6437 82.4054 24.6437C82.612 24.6437 82.7979 24.6231 82.9632 24.5817C83.1285 24.5322 83.2731 24.4619 83.3971 24.371C83.521 24.2801 83.6161 24.1727 83.6822 24.0487C83.7483 23.9248 83.7814 23.7884 83.7814 23.6397C83.7814 23.3669 83.6615 23.1397 83.4219 22.9579C83.3144 22.8835 83.1616 22.8091 82.9632 22.7348C82.7649 22.6521 82.5252 22.5736 82.2443 22.4992C81.7815 22.367 81.3972 22.2348 81.0914 22.1026C80.7857 21.9621 80.546 21.8009 80.3725 21.6191C80.2485 21.4704 80.1535 21.3092 80.0874 21.1357C80.0295 20.9621 80.0006 20.7721 80.0006 20.5655C80.0006 20.301 80.0543 20.0573 80.1618 19.8341C80.2775 19.611 80.4345 19.4168 80.6328 19.2515C80.8394 19.078 81.0791 18.9499 81.3518 18.8672C81.6327 18.7763 81.9344 18.7309 82.2567 18.7309C82.5624 18.7309 82.8641 18.7722 83.1616 18.8549C83.4591 18.9375 83.7359 19.0573 83.9921 19.2143C84.2483 19.3713 84.4673 19.5573 84.6491 19.7721L84.0789 20.3919C83.9218 20.2267 83.7483 20.0779 83.5582 19.9457C83.3682 19.8135 83.1657 19.7102 82.9508 19.6358C82.7442 19.5614 82.5294 19.5242 82.3062 19.5242C82.1079 19.5242 81.922 19.549 81.7484 19.5986C81.5831 19.6482 81.4385 19.7184 81.3146 19.8093C81.1989 19.892 81.108 19.9953 81.0419 20.1192C80.984 20.2432 80.9551 20.3795 80.9551 20.5283C80.9551 20.6523 80.9799 20.7638 81.0295 20.863C81.0791 20.9621 81.1493 21.0489 81.2402 21.1233C81.3559 21.2142 81.517 21.301 81.7236 21.3836C81.9385 21.458 82.2029 21.5365 82.517 21.6191C82.8806 21.7183 83.1863 21.8216 83.4343 21.929C83.6904 22.0282 83.9012 22.148 84.0665 22.2885C84.2896 22.4538 84.4466 22.6439 84.5375 22.8587C84.6367 23.0736 84.6862 23.3174 84.6862 23.5901C84.6862 23.9537 84.5829 24.276 84.3764 24.557C84.178 24.8379 83.9012 25.061 83.5458 25.2263C83.1905 25.3833 82.7855 25.4618 82.331 25.4618ZM88.6717 25.4618C88.1098 25.4618 87.6015 25.3172 87.147 25.028C86.6925 24.7305 86.333 24.3297 86.0686 23.8256C85.8041 23.3132 85.6719 22.7348 85.6719 22.0902C85.6719 21.4373 85.8083 20.8589 86.081 20.3548C86.3537 19.8507 86.7173 19.454 87.1718 19.1647C87.6346 18.8755 88.1511 18.7309 88.7213 18.7309C89.0601 18.7309 89.3741 18.7805 89.6634 18.8796C89.9526 18.9788 90.2088 19.1193 90.4319 19.3011C90.6633 19.4746 90.8534 19.6812 91.0021 19.9209C91.1591 20.1523 91.2666 20.4043 91.3244 20.677L91.0517 20.5407L91.0889 18.8672H92.0186V25.3379H91.0765V23.7512L91.3244 23.5901C91.2666 23.838 91.155 24.0776 90.9897 24.309C90.8245 24.5322 90.622 24.7305 90.3823 24.904C90.151 25.0776 89.8865 25.2139 89.589 25.3131C89.2998 25.4123 88.994 25.4618 88.6717 25.4618ZM88.8824 24.5693C89.3122 24.5693 89.6964 24.466 90.0353 24.2595C90.3741 24.0446 90.6385 23.7512 90.8286 23.3793C91.0269 22.9992 91.1261 22.5695 91.1261 22.0902C91.1261 21.6109 91.0269 21.1853 90.8286 20.8134C90.6385 20.4415 90.3741 20.1482 90.0353 19.9333C89.6964 19.7184 89.3122 19.611 88.8824 19.611C88.4445 19.611 88.056 19.7184 87.7172 19.9333C87.3867 20.1482 87.1222 20.4415 86.9239 20.8134C86.7338 21.1853 86.6388 21.6109 86.6388 22.0902C86.6388 22.5612 86.7338 22.9868 86.9239 23.3669C87.114 23.7388 87.3784 24.0322 87.7172 24.2471C88.056 24.4619 88.4445 24.5693 88.8824 24.5693ZM96.5569 25.4618C95.9454 25.4618 95.4 25.3172 94.9207 25.028C94.4414 24.7305 94.0612 24.3297 93.7803 23.8256C93.5076 23.3132 93.3712 22.7348 93.3712 22.0902C93.3712 21.4456 93.5076 20.8712 93.7803 20.3671C94.0612 19.8548 94.4414 19.454 94.9207 19.1647C95.4 18.8755 95.9495 18.7309 96.5693 18.7309C97.123 18.7309 97.6271 18.8425 98.0816 19.0656C98.5361 19.2804 98.8998 19.5821 99.1725 19.9705L98.627 20.6399C98.47 20.4333 98.28 20.2515 98.0568 20.0944C97.842 19.9374 97.6065 19.8176 97.3503 19.735C97.1024 19.6441 96.8544 19.5986 96.6065 19.5986C96.1685 19.5986 95.776 19.7102 95.4289 19.9333C95.0818 20.1482 94.805 20.4415 94.5984 20.8134C94.4001 21.1853 94.3009 21.6109 94.3009 22.0902C94.3009 22.5695 94.4001 22.9992 94.5984 23.3793C94.805 23.7512 95.0818 24.0446 95.4289 24.2595C95.776 24.4743 96.1644 24.5817 96.5941 24.5817C96.842 24.5817 97.0858 24.5446 97.3255 24.4702C97.5651 24.3875 97.7924 24.2718 98.0073 24.1231C98.2221 23.9743 98.4204 23.7884 98.6023 23.5653L99.1477 24.2347C98.8667 24.6065 98.4907 24.904 98.0196 25.1272C97.5486 25.3503 97.061 25.4618 96.5569 25.4618ZM101.247 25.3379V17.169H102.177V25.3379H101.247ZM99.7844 19.7598V18.8672H103.813V19.7598H99.7844ZM105.203 25.3379V18.8672H106.132V25.3379H105.203ZM105.661 17.4665C105.43 17.4665 105.252 17.4087 105.128 17.293C105.012 17.169 104.955 17.0037 104.955 16.7971C104.955 16.5905 105.017 16.4253 105.141 16.3013C105.265 16.1773 105.438 16.1154 105.661 16.1154C105.884 16.1154 106.058 16.1773 106.182 16.3013C106.306 16.417 106.368 16.5823 106.368 16.7971C106.368 16.9955 106.306 17.1566 106.182 17.2806C106.058 17.4045 105.884 17.4665 105.661 17.4665ZM111.026 25.4618C110.381 25.4618 109.807 25.3172 109.303 25.028C108.807 24.7388 108.415 24.338 108.125 23.8256C107.844 23.3132 107.704 22.7306 107.704 22.0778C107.704 21.4332 107.844 20.8589 108.125 20.3548C108.415 19.8507 108.807 19.454 109.303 19.1647C109.807 18.8755 110.381 18.7309 111.026 18.7309C111.662 18.7309 112.228 18.8755 112.724 19.1647C113.228 19.454 113.621 19.8507 113.902 20.3548C114.191 20.8589 114.336 21.4332 114.336 22.0778C114.336 22.7306 114.191 23.3132 113.902 23.8256C113.621 24.338 113.228 24.7388 112.724 25.028C112.228 25.3172 111.662 25.4618 111.026 25.4618ZM111.026 24.5817C111.481 24.5817 111.885 24.4743 112.241 24.2595C112.596 24.0363 112.873 23.7388 113.071 23.3669C113.27 22.9868 113.369 22.5571 113.369 22.0778C113.369 21.5985 113.27 21.1729 113.071 20.801C112.873 20.4291 112.596 20.1399 112.241 19.9333C111.885 19.7184 111.481 19.611 111.026 19.611C110.571 19.611 110.162 19.7184 109.799 19.9333C109.443 20.1399 109.162 20.4333 108.956 20.8134C108.758 21.1853 108.663 21.6067 108.671 22.0778C108.663 22.5571 108.758 22.9868 108.956 23.3669C109.162 23.7388 109.443 24.0363 109.799 24.2595C110.162 24.4743 110.571 24.5817 111.026 24.5817ZM115.692 25.3379V18.8672H116.609L116.647 20.2184L116.498 20.2804C116.58 19.9994 116.742 19.7432 116.981 19.5118C117.221 19.2804 117.506 19.0945 117.837 18.954C118.175 18.8053 118.522 18.7309 118.878 18.7309C119.357 18.7309 119.758 18.8259 120.08 19.016C120.403 19.2061 120.646 19.4994 120.812 19.8961C120.977 20.2928 121.059 20.7969 121.059 21.4084V25.3379H120.117V21.458C120.117 21.0283 120.06 20.677 119.944 20.4043C119.836 20.1234 119.667 19.9168 119.436 19.7845C119.204 19.6523 118.919 19.5903 118.58 19.5986C118.299 19.5986 118.039 19.6482 117.799 19.7474C117.56 19.8383 117.353 19.9663 117.18 20.1316C117.006 20.2969 116.87 20.487 116.771 20.7018C116.671 20.9167 116.622 21.1481 116.622 21.396V25.3379H116.163C116.105 25.3379 116.039 25.3379 115.965 25.3379C115.89 25.3379 115.8 25.3379 115.692 25.3379Z" fill="white"/>
<path d="M57.6412 46.4756C57.329 46.4756 57.0306 46.4343 56.7459 46.3517C56.4613 46.269 56.195 46.1497 55.9471 45.9936C55.7083 45.8375 55.4926 45.6538 55.2997 45.4426C55.1069 45.2223 54.9416 44.9835 54.8039 44.7264L55.7405 43.7485C55.9333 44.024 56.1078 44.2444 56.2639 44.4096C56.4291 44.5749 56.5852 44.7035 56.7321 44.7953C56.8791 44.8871 57.026 44.9514 57.1729 44.9881C57.3198 45.0157 57.4759 45.0294 57.6412 45.0294C57.9717 45.0294 58.261 44.956 58.5089 44.8091C58.7568 44.653 58.9496 44.4418 59.0874 44.1755C59.2251 43.9092 59.294 43.6062 59.294 43.2665V38.074H57.531V36.6967H62.269V38.074H60.7815V43.4042C60.7815 43.8449 60.7034 44.2535 60.5473 44.63C60.4004 44.9973 60.1846 45.3187 59.9 45.5941C59.6245 45.8696 59.294 46.0854 58.9083 46.2415C58.5318 46.3976 58.1095 46.4756 57.6412 46.4756ZM66.5083 46.4756C65.8013 46.4756 65.1677 46.3149 64.6076 45.9936C64.0567 45.663 63.6205 45.2177 63.2991 44.6576C62.9778 44.0883 62.8171 43.4409 62.8171 42.7155C62.8171 41.9902 62.9778 41.3474 63.2991 40.7873C63.6205 40.218 64.0567 39.7727 64.6076 39.4513C65.1677 39.1207 65.8013 38.9555 66.5083 38.9555C67.2061 38.9555 67.8305 39.1207 68.3815 39.4513C68.9416 39.7727 69.3823 40.218 69.7037 40.7873C70.0251 41.3474 70.1857 41.9902 70.1857 42.7155C70.1857 43.4409 70.0251 44.0883 69.7037 44.6576C69.3823 45.2177 68.9416 45.663 68.3815 45.9936C67.8305 46.3149 67.2061 46.4756 66.5083 46.4756ZM66.5083 45.1809C66.9399 45.1809 67.3255 45.0753 67.6652 44.8642C68.005 44.6438 68.2713 44.35 68.4641 43.9827C68.6569 43.6062 68.7487 43.1838 68.7396 42.7155C68.7487 42.2381 68.6569 41.8157 68.4641 41.4484C68.2713 41.0719 68.005 40.7781 67.6652 40.5669C67.3255 40.3557 66.9399 40.2501 66.5083 40.2501C66.0767 40.2501 65.6865 40.3603 65.3376 40.5807C64.9978 40.7919 64.7316 41.0857 64.5387 41.4622C64.3459 41.8295 64.2541 42.2473 64.2633 42.7155C64.2541 43.1838 64.3459 43.6062 64.5387 43.9827C64.7316 44.35 64.9978 44.6438 65.3376 44.8642C65.6865 45.0753 66.0767 45.1809 66.5083 45.1809ZM75.106 46.4756C74.3622 46.4756 73.7011 46.3195 73.1227 46.0073C72.5534 45.686 72.1034 45.2498 71.7729 44.6989C71.4515 44.148 71.2908 43.5144 71.2908 42.7982C71.2908 42.2289 71.3826 41.7101 71.5663 41.2418C71.7499 40.7735 72.0024 40.3695 72.3238 40.0298C72.6544 39.6809 73.0446 39.4146 73.4945 39.2309C73.9536 39.0381 74.4495 38.9417 74.982 38.9417C75.4503 38.9417 75.8865 39.0335 76.2905 39.2172C76.6945 39.3916 77.0434 39.6349 77.3373 39.9471C77.6403 40.2593 77.8698 40.6312 78.0259 41.0628C78.1912 41.4851 78.2692 41.9488 78.2601 42.4539L78.2463 43.0599H72.3376L72.0208 41.9305H77.0205L76.8139 42.1646V41.8341C76.7863 41.531 76.6853 41.2602 76.5109 41.0214C76.3364 40.7827 76.116 40.5945 75.8497 40.4567C75.5835 40.319 75.2942 40.2501 74.982 40.2501C74.4862 40.2501 74.0684 40.3466 73.7287 40.5394C73.3889 40.723 73.1318 40.9985 72.9574 41.3658C72.7829 41.7239 72.6957 42.1692 72.6957 42.7018C72.6957 43.2068 72.8013 43.6475 73.0125 44.024C73.2237 44.3913 73.5221 44.6759 73.9077 44.8779C74.2934 45.0799 74.7387 45.1809 75.2437 45.1809C75.6018 45.1809 75.9324 45.1213 76.2354 45.0019C76.5476 44.8825 76.8827 44.6667 77.2408 44.3546L77.957 45.36C77.7367 45.5804 77.4658 45.7732 77.1444 45.9385C76.8322 46.1037 76.4971 46.2369 76.139 46.3379C75.7901 46.4297 75.4457 46.4756 75.106 46.4756ZM79.8293 46.3379V36.1457H81.248V46.3379H79.8293ZM88.7165 43.418L88.6338 41.7514L93.6886 36.6967H95.6444L88.7165 43.418ZM87.4769 46.3379V36.6967H88.9644V46.3379H87.4769ZM93.8677 46.3379L90.1764 41.4071L91.2783 40.4567L95.727 46.3379H93.8677ZM99.9623 46.4756C99.2185 46.4756 98.5574 46.3195 97.9789 46.0073C97.4097 45.686 96.9597 45.2498 96.6292 44.6989C96.3078 44.148 96.1471 43.5144 96.1471 42.7982C96.1471 42.2289 96.2389 41.7101 96.4226 41.2418C96.6062 40.7735 96.8587 40.3695 97.1801 40.0298C97.5107 39.6809 97.9009 39.4146 98.3508 39.2309C98.8099 39.0381 99.3058 38.9417 99.8383 38.9417C100.307 38.9417 100.743 39.0335 101.147 39.2172C101.551 39.3916 101.9 39.6349 102.194 39.9471C102.497 40.2593 102.726 40.6312 102.882 41.0628C103.047 41.4851 103.126 41.9488 103.116 42.4539L103.103 43.0599H97.1939L96.8771 41.9305H101.877L101.67 42.1646V41.8341C101.643 41.531 101.542 41.2602 101.367 41.0214C101.193 40.7827 100.972 40.5945 100.706 40.4567C100.44 40.319 100.151 40.2501 99.8383 40.2501C99.3425 40.2501 98.9247 40.3466 98.585 40.5394C98.2452 40.723 97.9881 40.9985 97.8137 41.3658C97.6392 41.7239 97.552 42.1692 97.552 42.7018C97.552 43.2068 97.6576 43.6475 97.8688 44.024C98.08 44.3913 98.3784 44.6759 98.764 44.8779C99.1497 45.0799 99.595 45.1809 100.1 45.1809C100.458 45.1809 100.789 45.1213 101.092 45.0019C101.404 44.8825 101.739 44.6667 102.097 44.3546L102.813 45.36C102.593 45.5804 102.322 45.7732 102.001 45.9385C101.689 46.1037 101.353 46.2369 100.995 46.3379C100.646 46.4297 100.302 46.4756 99.9623 46.4756ZM104.658 46.3379V39.107H106.077V40.5945L105.829 40.7598C105.921 40.4384 106.1 40.1445 106.366 39.8783C106.632 39.6028 106.949 39.3824 107.316 39.2172C107.684 39.0427 108.06 38.9555 108.446 38.9555C108.997 38.9555 109.456 39.0656 109.823 39.286C110.19 39.4972 110.466 39.8232 110.649 40.2639C110.833 40.7047 110.925 41.2602 110.925 41.9305V46.3379H109.506V42.0269C109.506 41.6137 109.451 41.274 109.341 41.0077C109.231 40.7322 109.061 40.5348 108.831 40.4154C108.602 40.2869 108.317 40.2318 107.977 40.2501C107.702 40.2501 107.449 40.2961 107.22 40.3879C106.99 40.4705 106.788 40.5899 106.614 40.746C106.449 40.9021 106.315 41.0857 106.214 41.2969C106.123 41.4989 106.077 41.7193 106.077 41.958V46.3379H105.374C105.255 46.3379 105.136 46.3379 105.016 46.3379C104.897 46.3379 104.777 46.3379 104.658 46.3379ZM112.877 46.3379V36.1457H114.296V46.3379H112.877ZM119.546 46.4756C118.802 46.4756 118.141 46.3195 117.563 46.0073C116.993 45.686 116.543 45.2498 116.213 44.6989C115.892 44.148 115.731 43.5144 115.731 42.7982C115.731 42.2289 115.823 41.7101 116.006 41.2418C116.19 40.7735 116.442 40.3695 116.764 40.0298C117.094 39.6809 117.485 39.4146 117.935 39.2309C118.394 39.0381 118.89 38.9417 119.422 38.9417C119.89 38.9417 120.327 39.0335 120.731 39.2172C121.135 39.3916 121.483 39.6349 121.777 39.9471C122.08 40.2593 122.31 40.6312 122.466 41.0628C122.631 41.4851 122.709 41.9488 122.7 42.4539L122.686 43.0599H116.778L116.461 41.9305H121.461L121.254 42.1646V41.8341C121.226 41.531 121.125 41.2602 120.951 41.0214C120.776 40.7827 120.556 40.5945 120.29 40.4567C120.024 40.319 119.734 40.2501 119.422 40.2501C118.926 40.2501 118.508 40.3466 118.169 40.5394C117.829 40.723 117.572 40.9985 117.397 41.3658C117.223 41.7239 117.136 42.1692 117.136 42.7018C117.136 43.2068 117.241 43.6475 117.453 44.024C117.664 44.3913 117.962 44.6759 118.348 44.8779C118.733 45.0799 119.179 45.1809 119.684 45.1809C120.042 45.1809 120.372 45.1213 120.675 45.0019C120.988 44.8825 121.323 44.6667 121.681 44.3546L122.397 45.36C122.177 45.5804 121.906 45.7732 121.584 45.9385C121.272 46.1037 120.937 46.2369 120.579 46.3379C120.23 46.4297 119.886 46.4756 119.546 46.4756ZM125.319 49.5057L126.779 46.1313L126.793 47.2607L123.185 39.107H124.837L127.096 44.4234C127.142 44.5152 127.197 44.6576 127.261 44.8504C127.326 45.034 127.381 45.2177 127.427 45.4013L127.069 45.484C127.142 45.2911 127.211 45.0983 127.275 44.9055C127.349 44.7127 127.417 44.5198 127.482 44.327L129.369 39.107H131.049L128.074 46.3379L126.848 49.5057H125.319Z" fill="white"/>
<path d="M277.787 41.5861V39.6358H282.894V41.5861H277.787ZM288.978 45.5032C287.986 45.5032 287.116 45.3214 286.367 44.9578C285.617 44.5941 284.978 44.0597 284.449 43.3546L285.722 41.6852C286.284 42.4125 286.829 42.9193 287.358 43.2058C287.887 43.4923 288.482 43.6355 289.143 43.6355C289.518 43.6355 289.859 43.5804 290.168 43.4702C290.476 43.349 290.719 43.1893 290.895 42.9909C291.071 42.7816 291.16 42.5447 291.16 42.2802C291.16 42.0929 291.121 41.9221 291.044 41.7679C290.978 41.6026 290.873 41.4594 290.73 41.3382C290.587 41.2059 290.41 41.0847 290.201 40.9745C289.992 40.8644 289.755 40.7707 289.49 40.6936C289.226 40.6164 288.934 40.5448 288.614 40.4787C287.799 40.3134 287.121 40.0765 286.581 39.768C286.053 39.4485 285.656 39.0518 285.391 38.578C285.127 38.1042 284.995 37.5478 284.995 36.9087C284.995 36.4239 285.099 35.9776 285.309 35.5699C285.529 35.1623 285.827 34.8097 286.201 34.5122C286.576 34.2147 287.011 33.9833 287.507 33.818C288.003 33.6527 288.537 33.5701 289.11 33.5701C290.014 33.5701 290.813 33.7354 291.507 34.0659C292.201 34.3855 292.774 34.8648 293.226 35.5038L292.003 36.9913C291.628 36.4845 291.193 36.1043 290.697 35.8509C290.212 35.5865 289.683 35.4543 289.11 35.4543C288.713 35.4543 288.366 35.5093 288.069 35.6195C287.782 35.7297 287.557 35.8895 287.391 36.0988C287.226 36.2972 287.143 36.5396 287.143 36.8261C287.143 37.0464 287.193 37.2448 287.292 37.4211C287.391 37.5863 287.529 37.7351 287.705 37.8673C287.893 37.9995 288.13 38.1152 288.416 38.2144C288.702 38.3136 289.028 38.4017 289.391 38.4788C289.997 38.6 290.543 38.7653 291.027 38.9747C291.512 39.173 291.925 39.4154 292.267 39.7019C292.609 39.9774 292.867 40.2969 293.044 40.6605C293.22 41.0131 293.308 41.4098 293.308 41.8505C293.308 42.6108 293.126 43.2664 292.763 43.8173C292.41 44.3572 291.909 44.7759 291.259 45.0734C290.609 45.3599 289.848 45.5032 288.978 45.5032ZM287.986 46.8419L288.052 39.2722L289.556 39.8176L289.623 46.8419H287.986ZM290.135 39.8176L288.631 39.2722L288.565 32.3801H290.201L290.135 39.8176ZM298.877 45.3379C298.293 45.3379 297.748 45.2332 297.241 45.0239C296.745 44.8145 296.31 44.528 295.935 44.1644C295.571 43.7898 295.285 43.3546 295.076 42.8587C294.866 42.3629 294.762 41.8175 294.762 41.2225C294.762 40.8919 294.8 40.5393 294.877 40.1647C294.965 39.7901 295.092 39.3934 295.257 38.9747C295.434 38.545 295.637 38.0987 295.869 37.6359C296.1 37.1731 296.37 36.6883 296.679 36.1815L298.216 33.5701H300.265L300.331 33.7354L298.365 36.9748C298.045 37.5037 297.764 38.005 297.522 38.4788C297.279 38.9416 297.07 39.3879 296.894 39.8176C296.728 40.2363 296.591 40.644 296.48 41.0407L296.034 39.5366C296.199 39.184 296.403 38.8645 296.646 38.578C296.888 38.2915 297.158 38.0491 297.456 37.8508C297.753 37.6525 298.062 37.5037 298.381 37.4045C298.712 37.3054 299.048 37.2558 299.389 37.2558C300.028 37.2558 300.618 37.4321 301.158 37.7847C301.698 38.1263 302.127 38.5835 302.447 39.1565C302.778 39.7294 302.943 40.3575 302.943 41.0407C302.943 41.867 302.766 42.6053 302.414 43.2554C302.072 43.8945 301.593 44.4013 300.976 44.7759C300.359 45.1506 299.659 45.3379 298.877 45.3379ZM298.893 43.4537C299.29 43.4537 299.643 43.3601 299.951 43.1727C300.271 42.9854 300.519 42.7265 300.695 42.3959C300.871 42.0544 300.959 41.6632 300.959 41.2225C300.959 40.8478 300.866 40.5007 300.678 40.1812C300.502 39.8507 300.26 39.5862 299.951 39.3879C299.643 39.1785 299.296 39.0738 298.91 39.0738C298.491 39.0738 298.117 39.173 297.786 39.3713C297.467 39.5587 297.213 39.8176 297.026 40.1482C296.85 40.4677 296.761 40.8258 296.761 41.2225C296.761 41.6412 296.85 42.0213 297.026 42.3629C297.213 42.6934 297.467 42.9579 297.786 43.1562C298.106 43.3546 298.475 43.4537 298.893 43.4537ZM308.305 45.3875C307.567 45.3875 306.889 45.2387 306.272 44.9412C305.666 44.6327 305.181 44.225 304.818 43.7182C304.454 43.2003 304.272 42.6273 304.272 41.9993C304.272 41.6246 304.322 41.2776 304.421 40.958C304.531 40.6385 304.685 40.352 304.884 40.0986C305.093 39.8451 305.341 39.6193 305.627 39.4209C305.925 39.2116 306.261 39.0298 306.636 38.8755L306.503 39.3383C306.217 39.2171 305.952 39.0738 305.71 38.9086C305.479 38.7433 305.275 38.556 305.099 38.3466C304.933 38.1263 304.807 37.8949 304.718 37.6525C304.63 37.399 304.586 37.1346 304.586 36.8591C304.586 36.2641 304.751 35.7297 305.082 35.2559C305.424 34.7821 305.875 34.4075 306.437 34.132C306.999 33.8455 307.622 33.7023 308.305 33.7023C308.999 33.7023 309.627 33.8455 310.189 34.132C310.751 34.4075 311.197 34.7821 311.528 35.2559C311.869 35.7297 312.04 36.2641 312.04 36.8591C312.04 37.1346 311.996 37.399 311.908 37.6525C311.82 37.8949 311.693 38.1207 311.528 38.3301C311.374 38.5284 311.175 38.7157 310.933 38.892C310.69 39.0573 310.409 39.2061 310.09 39.3383L310.007 38.9416C310.36 39.0628 310.679 39.2226 310.966 39.4209C311.252 39.6193 311.5 39.8507 311.71 40.1151C311.919 40.3795 312.079 40.6715 312.189 40.9911C312.31 41.3106 312.371 41.6467 312.371 41.9993C312.371 42.6383 312.189 43.2168 311.825 43.7347C311.462 44.2415 310.971 44.6437 310.354 44.9412C309.748 45.2387 309.065 45.3875 308.305 45.3875ZM308.305 43.5364C308.68 43.5364 309.016 43.4647 309.313 43.3215C309.611 43.1783 309.842 42.9854 310.007 42.743C310.184 42.5006 310.272 42.2196 310.272 41.9001C310.272 41.5585 310.184 41.261 310.007 41.0076C309.842 40.7432 309.611 40.5393 309.313 40.3961C309.016 40.2418 308.68 40.1647 308.305 40.1647C307.941 40.1647 307.611 40.2418 307.313 40.3961C307.027 40.5393 306.795 40.7432 306.619 41.0076C306.443 41.261 306.355 41.5585 306.355 41.9001C306.355 42.2086 306.443 42.4841 306.619 42.7265C306.795 42.9689 307.027 43.1672 307.313 43.3215C307.611 43.4647 307.941 43.5364 308.305 43.5364ZM308.305 38.3466C308.635 38.3466 308.927 38.286 309.181 38.1648C309.445 38.0436 309.649 37.8783 309.792 37.669C309.936 37.4596 310.007 37.2172 310.007 36.9418C310.007 36.6553 309.936 36.4074 309.792 36.198C309.649 35.9776 309.445 35.8068 309.181 35.6856C308.927 35.5534 308.635 35.4873 308.305 35.4873C307.985 35.4873 307.693 35.5534 307.429 35.6856C307.175 35.8068 306.977 35.9776 306.834 36.198C306.691 36.4074 306.619 36.6553 306.619 36.9418C306.619 37.2172 306.691 37.4596 306.834 37.669C306.977 37.8783 307.175 38.0436 307.429 38.1648C307.693 38.286 307.985 38.3466 308.305 38.3466ZM315.13 45.5197C314.733 45.5197 314.425 45.404 314.204 45.1726C313.995 44.9412 313.89 44.6162 313.89 44.1975C313.89 43.8118 314 43.4978 314.221 43.2554C314.452 43.002 314.755 42.8752 315.13 42.8752C315.527 42.8752 315.83 42.9909 316.039 43.2223C316.259 43.4427 316.369 43.7677 316.369 44.1975C316.369 44.5831 316.254 44.9027 316.022 45.1561C315.802 45.3985 315.504 45.5197 315.13 45.5197ZM322.308 45.5032C321.371 45.5032 320.567 45.2663 319.895 44.7925C319.233 44.3077 318.721 43.6245 318.357 42.743C318.005 41.8505 317.829 40.7872 317.829 39.5532C317.829 38.3191 318.005 37.2613 318.357 36.3798C318.721 35.4873 319.233 34.8042 319.895 34.3304C320.567 33.8455 321.371 33.6031 322.308 33.6031C323.244 33.6031 324.049 33.8455 324.721 34.3304C325.393 34.8042 325.905 35.4873 326.258 36.3798C326.621 37.2613 326.803 38.3191 326.803 39.5532C326.803 40.7872 326.621 41.8505 326.258 42.743C325.905 43.6245 325.393 44.3077 324.721 44.7925C324.049 45.2663 323.244 45.5032 322.308 45.5032ZM322.308 43.619C323.079 43.619 323.674 43.2664 324.093 42.5612C324.522 41.845 324.737 40.8423 324.737 39.5532C324.737 38.253 324.522 37.2448 324.093 36.5286C323.674 35.8124 323.079 35.4543 322.308 35.4543C321.536 35.4543 320.936 35.8124 320.506 36.5286C320.087 37.2448 319.878 38.253 319.878 39.5532C319.878 40.8423 320.087 41.845 320.506 42.5612C320.936 43.2664 321.536 43.619 322.308 43.619ZM332.734 45.5032C331.798 45.5032 330.993 45.2663 330.321 44.7925C329.66 44.3077 329.148 43.6245 328.784 42.743C328.432 41.8505 328.255 40.7872 328.255 39.5532C328.255 38.3191 328.432 37.2613 328.784 36.3798C329.148 35.4873 329.66 34.8042 330.321 34.3304C330.993 33.8455 331.798 33.6031 332.734 33.6031C333.671 33.6031 334.475 33.8455 335.147 34.3304C335.82 34.8042 336.332 35.4873 336.684 36.3798C337.048 37.2613 337.23 38.3191 337.23 39.5532C337.23 40.7872 337.048 41.8505 336.684 42.743C336.332 43.6245 335.82 44.3077 335.147 44.7925C334.475 45.2663 333.671 45.5032 332.734 45.5032ZM332.734 43.619C333.506 43.619 334.101 43.2664 334.519 42.5612C334.949 41.845 335.164 40.8423 335.164 39.5532C335.164 38.253 334.949 37.2448 334.519 36.5286C334.101 35.8124 333.506 35.4543 332.734 35.4543C331.963 35.4543 331.363 35.8124 330.933 36.5286C330.514 37.2448 330.305 38.253 330.305 39.5532C330.305 40.8423 330.514 41.845 330.933 42.5612C331.363 43.2664 331.963 43.619 332.734 43.619Z" fill="white"/>
</svg>
