<svg width="64" height="64" viewBox="0 0 64 64" fill="none" xmlns="http://www.w3.org/2000/svg">
<rect width="64" height="64" rx="32" fill="url(#paint0_linear_108_2455)" fill-opacity="0.05"/>
<rect x="8" y="8" width="48" height="48" rx="24" fill="url(#paint1_linear_108_2455)" fill-opacity="0.1"/>
<rect x="8.5" y="8.5" width="47" height="47" rx="23.5" stroke="url(#paint2_linear_108_2455)" stroke-opacity="0.2"/>
<g clip-path="url(#clip0_108_2455)">
<path d="M34.1535 25.5027C34.1799 25.5335 34.1843 25.5423 34.1887 25.5423C34.6242 25.6039 34.8265 25.9294 35.0597 26.255C35.328 26.6245 35.6492 26.9632 35.9923 27.2711C36.8941 28.085 37.4484 29.0704 37.6331 30.2713C37.9543 32.374 36.7489 34.534 34.7693 35.3742C31.7648 36.6499 28.4083 34.7099 28.0608 31.4634C27.876 29.7346 28.5095 28.3049 29.8292 27.1788C30.2559 26.8136 30.6122 26.3913 30.907 25.9118C30.9598 25.8238 31.0565 25.7535 31.1489 25.7095C31.2985 25.6391 31.4656 25.5995 31.6548 25.5335C31.5932 25.4587 31.5492 25.4059 31.5008 25.3531C31.2061 25.0496 30.9114 24.7373 30.6122 24.4425C30.5067 24.337 30.4583 24.227 30.4627 24.0774C30.4715 23.4528 30.4671 22.8325 30.4671 22.2078C30.4671 21.9571 30.775 21.5568 31.0257 21.5084C31.3117 21.4512 31.6064 21.4204 31.8924 21.3632C31.9759 21.3456 32.0683 21.2928 32.1167 21.2268C32.5346 20.6638 33.2693 20.6594 33.6828 21.218C33.74 21.2928 33.8499 21.35 33.9423 21.372C34.2063 21.4292 34.4746 21.46 34.7429 21.5084C35.0113 21.5612 35.2972 21.9087 35.2972 22.1814C35.2972 22.8105 35.2928 23.444 35.3016 24.073C35.306 24.2358 35.2532 24.3458 35.1433 24.4601C34.8089 24.7989 34.4878 25.1464 34.1535 25.5027ZM32.3059 27.953C32.2927 28.0058 32.2795 28.0366 32.2839 28.063C32.3411 28.3577 32.2047 28.4853 31.9319 28.5953C31.4129 28.8108 31.1797 29.2463 31.1929 29.805C31.2061 30.3593 31.5052 30.7024 32.0067 30.8828C32.2267 30.9619 32.4554 31.0191 32.6754 31.0939C32.8777 31.1599 33.0801 31.2259 33.2737 31.3051C33.4364 31.3711 33.5288 31.4986 33.5112 31.6834C33.4936 31.8726 33.3748 31.9825 33.2077 32.0133C33.0361 32.0485 32.8514 32.0793 32.6886 32.0397C32.3719 31.9649 32.0683 31.8374 31.734 31.723C31.5844 31.9209 31.4129 32.1453 31.2061 32.4224C31.5184 32.5588 31.7868 32.6996 32.0727 32.7964C32.2355 32.8491 32.3015 32.9195 32.2795 33.0867C32.2663 33.2055 32.2751 33.3286 32.2751 33.465C32.5258 33.465 32.737 33.465 32.9481 33.465C33.2517 33.465 33.2649 33.465 33.2473 33.1527C33.2385 32.9591 33.2825 32.8535 33.4936 32.8271C33.6036 32.8139 33.7136 32.7524 33.8147 32.6952C34.281 32.44 34.4746 32.0309 34.4658 31.5118C34.457 31.0191 34.2107 30.6804 33.7708 30.4824C33.5728 30.3945 33.3616 30.3285 33.1505 30.2581C32.8865 30.1701 32.6226 30.0909 32.3587 29.9942C32.1959 29.9326 32.1299 29.8006 32.1431 29.6246C32.1563 29.4575 32.2575 29.3431 32.4114 29.3167C32.5962 29.2859 32.7942 29.2683 32.9745 29.2991C33.1945 29.3387 33.4012 29.4399 33.6344 29.5191C33.7796 29.2947 33.9291 29.0572 34.1051 28.78C33.9027 28.6876 33.7312 28.5733 33.5464 28.5425C33.2869 28.4985 33.2077 28.3797 33.2385 28.1334C33.2473 28.0762 33.1681 27.9618 33.1197 27.9574C32.8558 27.9442 32.5786 27.953 32.3059 27.953Z" fill="#CAFF33"/>
<path d="M32.5428 43.1912C31.6058 43.1912 30.6644 43.1648 29.7274 43.2C29.0983 43.222 28.5616 43.0328 28.0557 42.6985C27.3387 42.219 26.6832 41.6735 26.1114 41.0225C25.2667 40.0591 24.4133 39.0957 23.5687 38.1323C22.8781 37.3405 23.1904 36.1703 24.1758 35.8492C24.2902 35.8096 24.4221 35.7964 24.5409 35.7964C25.3239 35.792 26.1114 35.7876 26.8944 35.8008C27.0044 35.8008 27.1363 35.858 27.2155 35.9328C27.7522 36.4519 28.2801 36.9841 28.8036 37.5164C28.9092 37.622 29.0059 37.644 29.1555 37.622C29.4722 37.5736 29.7978 37.5296 30.1189 37.5296C31.6014 37.5208 33.0795 37.5252 34.562 37.5252C35.0678 37.5252 35.4418 37.7848 35.5737 38.2159C35.7761 38.8669 35.301 39.4784 34.5752 39.4828C33.5942 39.4872 32.6088 39.4828 31.6278 39.4828C31.4518 39.4828 31.2759 39.4784 31.0999 39.4828C30.7832 39.4916 30.5764 39.694 30.572 39.9799C30.572 40.2702 30.7788 40.4902 31.0911 40.4902C32.6528 40.4946 34.2144 40.4946 35.7761 40.4902C36.0928 40.4902 36.3216 40.3142 36.5415 40.1031C37.5621 39.1221 38.5827 38.1411 39.6077 37.1645C40.0256 36.7642 40.5799 36.7466 40.9758 37.1029C41.4025 37.49 41.4113 38.1147 40.9802 38.5502C40.5271 39.0121 40.0652 39.4476 39.6077 39.8919C38.5959 40.8729 37.5841 41.8495 36.5767 42.8305C36.3304 43.068 36.0576 43.1912 35.7101 43.1912C34.6543 43.1868 33.5986 43.1912 32.5428 43.1912Z" fill="#CAFF33"/>
<path d="M27.3074 24.6006C27.7341 25.0273 28.1609 25.454 28.5788 25.8719C28.3192 26.1315 28.0465 26.4042 27.7737 26.6725C27.369 26.2546 26.9423 25.8147 26.5332 25.3924C26.7752 25.1461 27.0479 24.8645 27.3074 24.6006Z" fill="#CAFF33"/>
<path d="M38.4159 24.6006C38.6754 24.8601 38.9438 25.1373 39.1945 25.388C38.7766 25.8059 38.3411 26.2414 37.9188 26.6593C37.6636 26.4042 37.3953 26.1271 37.127 25.8587C37.5449 25.4496 37.976 25.0273 38.4159 24.6006Z" fill="#CAFF33"/>
<path d="M39.4269 31.5337C39.4269 31.1598 39.4225 30.8166 39.4313 30.4735C39.4313 30.4295 39.5149 30.3503 39.5589 30.3503C40.0955 30.3416 40.6278 30.3416 41.1645 30.3503C41.2085 30.3503 41.2921 30.4163 41.2921 30.4515C41.3009 30.8079 41.2965 31.1642 41.2965 31.5337C40.6674 31.5337 40.0603 31.5337 39.4269 31.5337Z" fill="#CAFF33"/>
<path d="M26.2837 31.5469C25.6766 31.5469 25.1091 31.5513 24.5373 31.5425C24.4933 31.5425 24.4229 31.4589 24.4185 31.4105C24.4097 31.1026 24.4053 30.7947 24.4185 30.4867C24.4185 30.4383 24.5065 30.3503 24.5549 30.3503C25.0827 30.3416 25.6106 30.3416 26.1385 30.3503C26.1869 30.3503 26.2749 30.4207 26.2749 30.4647C26.2881 30.8079 26.2837 31.1598 26.2837 31.5469Z" fill="#CAFF33"/>
</g>
<defs>
<linearGradient id="paint0_linear_108_2455" x1="32" y1="0" x2="32" y2="64" gradientUnits="userSpaceOnUse">
<stop stop-color="#CAFF33"/>
<stop offset="1" stop-color="#CAFF33" stop-opacity="0"/>
</linearGradient>
<linearGradient id="paint1_linear_108_2455" x1="32" y1="-23.7838" x2="32" y2="131.892" gradientUnits="userSpaceOnUse">
<stop stop-color="#CAFF33"/>
<stop offset="0.467671" stop-color="#CAFF33" stop-opacity="0"/>
</linearGradient>
<linearGradient id="paint2_linear_108_2455" x1="32" y1="-75.3514" x2="32" y2="99.4595" gradientUnits="userSpaceOnUse">
<stop stop-color="#CAFF33"/>
<stop offset="0.716291" stop-color="#CAFF33" stop-opacity="0"/>
</linearGradient>
<clipPath id="clip0_108_2455">
<rect width="18.1021" height="22.4" fill="white" transform="translate(23.1992 20.7998)"/>
</clipPath>
</defs>
</svg>
