<svg width="64" height="64" viewBox="0 0 64 64" fill="none" xmlns="http://www.w3.org/2000/svg">
<rect width="64" height="64" rx="32" fill="url(#paint0_linear_108_2468)" fill-opacity="0.05"/>
<rect x="8" y="8" width="48" height="48" rx="24" fill="url(#paint1_linear_108_2468)" fill-opacity="0.1"/>
<rect x="8.5" y="8.5" width="47" height="47" rx="23.5" stroke="url(#paint2_linear_108_2468)" stroke-opacity="0.2"/>
<g clip-path="url(#clip0_108_2468)">
<path d="M39.7272 31.2146C39.7272 31.8129 39.7352 32.4072 39.7232 33.0055C39.7152 33.3283 39.8075 33.6116 39.9761 33.8793C40.4097 34.5799 40.9839 35.1664 41.566 35.745C41.7828 35.9615 42.0077 36.1661 42.2365 36.3669C42.3489 36.4653 42.4011 36.5676 42.4011 36.7211C42.3931 37.3784 42.3931 38.0318 42.3971 38.6891C42.4011 39.2362 42.1602 39.6456 41.6584 39.8739C41.1445 40.1061 40.6627 40.0077 40.2411 39.6495C39.3699 38.9017 38.5027 38.1499 37.6355 37.4021C37.0453 36.8904 36.4591 36.3708 35.8569 35.8749C35.6441 35.6978 35.3912 35.5679 35.1463 35.434C34.7849 35.2372 34.3955 35.131 33.9739 35.1467C33.6688 35.1585 33.3556 35.1624 33.0505 35.1388C32.6048 35.1034 32.2877 34.8003 32.2274 34.3831C32.1712 34.0171 32.3921 33.6235 32.7614 33.4818C32.9019 33.4267 33.0585 33.403 33.2111 33.403C34.3674 33.3952 35.5237 33.3991 36.6839 33.3991C37.1176 33.3991 37.2741 33.2456 37.2741 32.8166C37.2741 31.9506 37.2701 31.0847 37.2741 30.2188C37.2781 29.8882 37.1617 29.6284 36.9088 29.404C35.4514 28.1209 34.002 26.8299 32.5486 25.5388C32.1592 25.1925 32.115 24.6808 32.4402 24.3069C32.7614 23.9329 33.2874 23.8975 33.7009 24.2124C35.5598 25.6294 37.4147 27.0463 39.2816 28.4554C39.5907 28.6877 39.7352 28.9711 39.7312 29.345C39.7232 29.9669 39.7272 30.5888 39.7272 31.2146Z" fill="#CAFF33"/>
<path d="M20.805 37.7643C20.805 37.41 20.809 37.0558 20.801 36.7015C20.797 36.5638 20.8532 36.4732 20.9455 36.3788C21.5518 35.7687 22.15 35.1507 22.7442 34.5288C22.8686 34.3989 22.961 34.2454 23.0694 34.1037C23.3544 33.7219 23.4869 33.3047 23.4749 32.8167C23.4508 31.6909 23.4789 30.5613 23.4628 29.4317C23.4548 28.9869 23.6154 28.672 23.9808 28.3965C25.8356 27.011 27.6704 25.6019 29.5133 24.1967C29.8987 23.9015 30.4286 23.9488 30.7418 24.303C31.063 24.6651 31.0349 25.1847 30.6615 25.5232C30.0954 26.0349 29.5213 26.5347 28.9512 27.0425C28.0478 27.8415 27.1445 28.6445 26.2411 29.4435C26.0283 29.6324 25.924 29.8607 25.924 30.1362C25.924 31.0533 25.9199 31.9704 25.924 32.8914C25.924 33.2299 26.1006 33.3953 26.4499 33.3953C27.6423 33.3992 28.8307 33.3953 30.0231 33.3992C30.5852 33.3992 30.9787 33.7849 30.9666 34.3045C30.9586 34.702 30.6655 35.0602 30.26 35.1192C30.0191 35.1547 29.7662 35.1704 29.5213 35.1468C28.6982 35.0681 28.0037 35.3633 27.3894 35.8435C26.7631 36.3315 26.1769 36.8747 25.5787 37.3903C24.6994 38.1461 23.8242 38.9096 22.9409 39.6614C22.2263 40.2715 21.1704 40.0039 20.8652 39.134C20.8251 39.0238 20.813 38.9018 20.809 38.7876C20.801 38.4491 20.805 38.1067 20.805 37.7643Z" fill="#CAFF33"/>
<path d="M32.1714 32.0297C32.1714 32.2187 32.1714 32.3958 32.1714 32.5887C31.8341 32.5887 31.5129 32.5887 31.1636 32.5887C31.1636 32.4351 31.1596 32.2856 31.1636 32.136C31.1676 32.0258 31.1355 31.9786 31.0191 31.951C30.6859 31.8723 30.3767 31.7385 30.0876 31.5102C30.2723 31.2701 30.449 31.0418 30.6096 30.8292C30.9147 30.9434 31.1917 31.0772 31.4848 31.1441C31.6976 31.1914 31.9345 31.1599 32.1553 31.1244C32.3239 31.0969 32.4323 30.967 32.4444 30.7899C32.4604 30.6088 32.3641 30.4829 32.2035 30.4199C31.9305 30.3176 31.6454 30.2388 31.3684 30.1483C31.1676 30.0814 30.9589 30.0224 30.7621 29.9397C30.3004 29.7468 30.0555 29.4044 30.0435 28.9006C30.0314 28.3732 30.2322 27.9481 30.714 27.7198C31.0271 27.5702 31.2961 27.46 31.1395 27.0231C31.4808 27.0231 31.7779 27.0192 32.079 27.031C32.1111 27.031 32.1673 27.1294 32.1673 27.1845C32.1874 27.519 32.1874 27.5112 32.5046 27.6214C32.6893 27.6843 32.8659 27.7749 33.0667 27.8654C32.8981 28.1212 32.7615 28.3456 32.609 28.5581C32.5849 28.5896 32.4885 28.5857 32.4323 28.57C32.1673 28.503 31.9104 28.4164 31.6454 28.3653C31.541 28.3456 31.4206 28.3771 31.3122 28.4046C31.1516 28.4479 31.0432 28.5542 31.0311 28.7274C31.0191 28.8966 31.0954 29.0265 31.252 29.0895C31.4567 29.1722 31.6655 29.2351 31.8743 29.3021C32.1031 29.3768 32.34 29.4319 32.5608 29.5146C33.1992 29.7586 33.4561 30.1444 33.424 30.7781C33.3919 31.3606 33.0265 31.7936 32.4243 31.9628C32.352 31.9864 32.2757 32.0061 32.1714 32.0297Z" fill="#CAFF33"/>
</g>
<defs>
<linearGradient id="paint0_linear_108_2468" x1="32" y1="0" x2="32" y2="64" gradientUnits="userSpaceOnUse">
<stop stop-color="#CAFF33"/>
<stop offset="1" stop-color="#CAFF33" stop-opacity="0"/>
</linearGradient>
<linearGradient id="paint1_linear_108_2468" x1="32" y1="-23.7838" x2="32" y2="131.892" gradientUnits="userSpaceOnUse">
<stop stop-color="#CAFF33"/>
<stop offset="0.467671" stop-color="#CAFF33" stop-opacity="0"/>
</linearGradient>
<linearGradient id="paint2_linear_108_2468" x1="32" y1="-75.3514" x2="32" y2="99.4595" gradientUnits="userSpaceOnUse">
<stop stop-color="#CAFF33"/>
<stop offset="0.716291" stop-color="#CAFF33" stop-opacity="0"/>
</linearGradient>
<clipPath id="clip0_108_2468">
<rect width="21.6" height="16" fill="white" transform="translate(20.8008 24)"/>
</clipPath>
</defs>
</svg>
